<svg xmlns="http://www.w3.org/2000/svg" viewBox="0 0 750 500"><g id="freepik--background-complete--inject-17"><rect x="453.46" y="42.42" width="7.85" height="39.23" transform="translate(-0.32 2.38) rotate(-0.3)" style="fill:#e0e0e0"></rect><rect x="385.42" y="42.55" width="20.32" height="21.66" transform="translate(-0.27 2.06) rotate(-0.3)" style="fill:#ebebeb"></rect><rect x="405.65" y="42.44" width="20.32" height="21.66" transform="matrix(1, -0.01, 0.01, 1, -0.27, 2.17)" style="fill:#f5f5f5"></rect><path d="M385.4,48.58c13.5.12,27,0,40.55-.18a.22.22,0,0,0,0-.43c-13.5-.08-27,0-40.55.24a.19.19,0,0,0,0,.37Z" style="fill:#e0e0e0"></path><rect x="372.74" y="63.89" width="36.92" height="17.65" transform="translate(-0.37 2.04) rotate(-0.3)" style="fill:#ebebeb"></rect><rect x="409.49" y="63.7" width="36.92" height="17.65" transform="translate(-0.37 2.23) rotate(-0.3)" style="fill:#f5f5f5"></rect><path d="M372.72,68.89c24.53.29,49.14,0,73.67-.35a.22.22,0,0,0,0-.43c-24.53-.14-49.15-.13-73.68.41a.19.19,0,0,0,0,.37Z" style="fill:#e0e0e0"></path><rect x="358.9" y="81.64" width="143.06" height="6.32" style="fill:#e0e0e0"></rect><rect x="382.32" y="84.68" width="5.81" height="21.58" style="fill:#e0e0e0"></rect><rect x="469.02" y="84.69" width="5.81" height="21.58" style="fill:#e0e0e0"></rect><rect x="461.15" y="27.8" width="7.85" height="53.95" transform="translate(-0.28 2.42) rotate(-0.3)" style="fill:#ebebeb"></rect><rect x="469.04" y="37.85" width="12.19" height="43.72" transform="translate(-0.31 2.48) rotate(-0.3)" style="fill:#f5f5f5"></rect><path d="M481,46.25a45.64,45.64,0,0,1-6.1.21,42.64,42.64,0,0,1-6.09-.22,45.55,45.55,0,0,1,6.09-.21A42.73,42.73,0,0,1,481,46.25Z" style="fill:#e0e0e0"></path><path d="M481,44.41a43.71,43.71,0,0,1-6.1.21,45.55,45.55,0,0,1-6.09-.21,41.86,41.86,0,0,1,6.09-.21A43.71,43.71,0,0,1,481,44.41Z" style="fill:#e0e0e0"></path><path d="M481,75a88.7,88.7,0,0,1-12.2,0A84.68,84.68,0,0,1,481,75Z" style="fill:#e0e0e0"></path><path d="M481,73.13a88.7,88.7,0,0,1-12.2,0,88.7,88.7,0,0,1,12.2,0Z" style="fill:#e0e0e0"></path><path d="M475.14,69.12c-.12,0-.21-4.41-.21-9.85s.09-9.85.21-9.85.21,4.41.21,9.85S475.25,69.12,475.14,69.12Z" style="fill:#e0e0e0"></path><rect x="481.17" y="48.56" width="13.27" height="33" style="fill:#ebebeb"></rect><path d="M467.08,37a2.26,2.26,0,1,1-2.26-2.27A2.26,2.26,0,0,1,467.08,37Z" style="fill:#e0e0e0"></path><rect x="464.12" y="43.22" width="1.39" height="32.1" style="fill:#e0e0e0"></rect><polygon points="585.54 433.45 585.54 468.19 636.33 468.19 692.35 468.19 692.35 433.45 585.54 433.45" style="fill:#f5f5f5"></polygon><polygon points="581.06 423.74 581.06 433.45 696.09 433.45 696.09 423.74 636.33 423.74 581.06 423.74" style="fill:#e0e0e0"></polygon><polygon points="638.57 468.19 692.35 468.19 692.35 433.45 696.09 433.45 696.09 423.74 636.33 423.74 636.33 432.56 638.57 468.19" style="fill:#e0e0e0"></polygon><rect x="600.48" y="439.05" width="21.66" height="5.23" style="fill:#e0e0e0"></rect><rect x="597.69" y="450.82" width="27.82" height="11.04" style="fill:#fff"></rect><polygon points="601.97 389.06 601.97 423.79 652.76 423.79 708.79 423.79 708.79 389.06 601.97 389.06" style="fill:#f5f5f5"></polygon><polygon points="597.49 379.34 597.49 389.06 712.52 389.06 712.52 379.34 652.76 379.34 597.49 379.34" style="fill:#e0e0e0"></polygon><polygon points="655.01 423.79 708.79 423.79 708.79 389.06 712.52 389.06 712.52 379.34 652.76 379.34 652.76 388.16 655.01 423.79" style="fill:#e0e0e0"></polygon><rect x="616.91" y="394.66" width="21.66" height="5.23" style="fill:#e0e0e0"></rect><rect x="614.12" y="406.42" width="27.82" height="11.04" style="fill:#fff"></rect><path d="M197.88,57.12a.9.9,0,0,1-.24-.07l-.68-.27-2.59-1.08-9.5-4.06L153.64,38l-1.08-.48h.22l-30.6,13.08-9.26,3.89-2.52,1a8.07,8.07,0,0,1-.9.33,5.37,5.37,0,0,1,.85-.43l2.49-1.13,9.18-4L152.56,37l.11,0,.12,0,1.08.47L185,51.27l9.42,4.23L197,56.67l.66.32Z" style="fill:#e0e0e0"></path><rect x="46.01" y="52.64" width="200.59" height="150.19" style="fill:#e0e0e0"></rect><rect x="53.02" y="59.62" width="187.32" height="137.04" style="fill:#fafafa"></rect><path d="M94.39,119.49s.2,23,1.37,30l28.85-1.37s-2.53-22.61-1.56-28.66Z" style="fill:#e0e0e0"></path><path d="M108.6,122.74H109a6.93,6.93,0,0,1,1.2.06,6.33,6.33,0,0,1,1.84.55,6,6,0,0,1,2,1.58,6.89,6.89,0,0,1,1.39,2.77,6.8,6.8,0,0,1-.31,3.57,10.09,10.09,0,0,1-.81,1.78c-.32.58-.65,1.17-.92,1.8a15.66,15.66,0,0,0-1.17,4.1V139h-.09l-2.85,0-3,.05h-.11V139a8.58,8.58,0,0,0-1.38-3.94c-.35-.6-.73-1.15-1.09-1.71s-.73-1.08-1-1.65a5.54,5.54,0,0,1-.45-3.52,7.59,7.59,0,0,1,1.11-2.87,5.47,5.47,0,0,1,1.88-1.69,7.09,7.09,0,0,1,1.77-.69,7.67,7.67,0,0,1,1.18-.19h.41s0,0-.1,0l-.31,0A8.84,8.84,0,0,0,107,123a6.88,6.88,0,0,0-1.73.71,5.36,5.36,0,0,0-1.82,1.67,7.3,7.3,0,0,0-1.06,2.82,5.44,5.44,0,0,0,.45,3.4,18,18,0,0,0,1,1.63c.36.56.74,1.11,1.09,1.71a8.67,8.67,0,0,1,1.43,4l-.11-.11,3-.05,2.84,0-.1.09a15.45,15.45,0,0,1,1.19-4.15,19.45,19.45,0,0,1,.94-1.82,10.44,10.44,0,0,0,.8-1.74,6.55,6.55,0,0,0,.32-3.47,6.79,6.79,0,0,0-1.33-2.72,5.87,5.87,0,0,0-1.93-1.57,6.57,6.57,0,0,0-1.8-.57,9.36,9.36,0,0,0-1.19-.1h-.42Z" style="fill:#fff"></path><path d="M110.08,138.77a.62.62,0,0,0,0-.09c0-.06,0-.15,0-.27s-.09-.58-.15-1c-.13-.89-.33-2.19-.46-3.8,0-.41,0-.83-.07-1.27s0-.9,0-1.38a3.87,3.87,0,0,1,.33-1.44,2.24,2.24,0,0,1,1.1-1.11,1.5,1.5,0,0,1,1.57.3,1.17,1.17,0,0,1,.34.79,1.47,1.47,0,0,1-.3.83,1.88,1.88,0,0,1-.69.56,3.79,3.79,0,0,1-.86.29,10.9,10.9,0,0,1-1.82.21,11.11,11.11,0,0,1-1.83-.09,3.63,3.63,0,0,1-.87-.25,2.26,2.26,0,0,1-.73-.52,1.67,1.67,0,0,1-.42-.77,1.34,1.34,0,0,1,.1-.86,1.19,1.19,0,0,1,.61-.58,1,1,0,0,1,.82,0,1.47,1.47,0,0,1,.61.52,2.23,2.23,0,0,1,.31.71,8.5,8.5,0,0,1,.14,1.48c.05,1,.1,1.83.14,2.64.08,1.61.15,2.92.19,3.83,0,.44,0,.79.05,1v.36a.62.62,0,0,0,0-.09l0-.27c0-.24,0-.59-.06-1-.05-.91-.13-2.22-.22-3.83q-.07-1.22-.15-2.64a8.22,8.22,0,0,0-.15-1.46,2.2,2.2,0,0,0-.29-.69,1.57,1.57,0,0,0-.59-.49.93.93,0,0,0-.75,0,1.05,1.05,0,0,0-.56.54,1.17,1.17,0,0,0-.09.8,1.62,1.62,0,0,0,.39.73,2.58,2.58,0,0,0,1.55.74,10.87,10.87,0,0,0,1.81.09,10.67,10.67,0,0,0,1.81-.21,4,4,0,0,0,.84-.28,1.8,1.8,0,0,0,.66-.53,1.33,1.33,0,0,0,.28-.78,1.06,1.06,0,0,0-.31-.73,1.4,1.4,0,0,0-1.48-.28,2.07,2.07,0,0,0-1.06,1.06,3.53,3.53,0,0,0-.32,1.41c0,.48,0,.94,0,1.38s0,.86.07,1.26c.12,1.61.3,2.91.42,3.81.06.44.11.79.14,1l0,.27Z" style="fill:#fff"></path><path d="M106.29,138.92s0,.36.07,1,.08,1.53.13,2.5l0-.06,1.94,2.24-.1,0,2.24-.13-.09.05,1.12-1.37c.19-.23.37-.46.56-.68l0,.09c0-1.32-.06-2.56-.09-3.7l.13.12-4.2,0h-1.21a2.37,2.37,0,0,1-.45,0,1.87,1.87,0,0,1,.4,0l1.18-.07,4.27-.16h.12v.12c0,1.14.07,2.38.11,3.7v.05l0,0-.56.68-1.12,1.36,0,.05h-.06l-2.25.11h-.06l0-.05c-.69-.83-1.34-1.59-1.9-2.27l0,0v0c0-1,0-1.85,0-2.57A6.09,6.09,0,0,1,106.29,138.92Z" style="fill:#fff"></path><path d="M112.08,142.17a1,1,0,0,1-.21-.09l-.58-.23a6,6,0,0,0-2-.31,5.77,5.77,0,0,0-2,.44l-.57.26-.2.1.19-.13a3.91,3.91,0,0,1,.56-.29,5.34,5.34,0,0,1,4.08-.13,5.69,5.69,0,0,1,.57.26A1.13,1.13,0,0,1,112.08,142.17Z" style="fill:#fff"></path><path d="M112.08,141.27a.59.59,0,0,1-.21-.09l-.58-.23a5.8,5.8,0,0,0-2-.3,5.57,5.57,0,0,0-2,.43c-.24.1-.44.19-.57.26l-.2.11s.06-.06.19-.14a3.91,3.91,0,0,1,.56-.29,5.28,5.28,0,0,1,2-.46,5.41,5.41,0,0,1,2.06.33,5.69,5.69,0,0,1,.57.26Z" style="fill:#fff"></path><path d="M112,140.42s-.08,0-.21-.09l-.59-.23a5.67,5.67,0,0,0-4,.12,5.36,5.36,0,0,0-.57.27c-.13.07-.2.11-.21.1l.19-.13a5.19,5.19,0,0,1,.56-.3,5.59,5.59,0,0,1,2-.46,5.5,5.5,0,0,1,2,.34,4.29,4.29,0,0,1,.58.26Z" style="fill:#fff"></path><path d="M62.26,81.88s.19,23,1.36,30l28.86-1.37s-2.54-22.61-1.56-28.66Z" style="fill:#ebebeb"></path><path d="M86.57,91.55a85.33,85.33,0,0,1-9.67.86,82.59,82.59,0,0,1-9.69.3,85,85,0,0,1,9.66-.86A82.77,82.77,0,0,1,86.57,91.55Z" style="fill:#fff"></path><path d="M86.58,96.42a82.64,82.64,0,0,1-9.67.86,80.23,80.23,0,0,1-9.7.3,85.33,85.33,0,0,1,9.67-.86A82.76,82.76,0,0,1,86.58,96.42Z" style="fill:#fff"></path><path d="M81.67,101.2a26.33,26.33,0,0,1-5.5.62,28.07,28.07,0,0,1-5.53.05,27.16,27.16,0,0,1,5.5-.62A28,28,0,0,1,81.67,101.2Z" style="fill:#fff"></path><path d="M60.89,149.57s.2,23,1.37,30l28.85-1.37s-2.53-22.61-1.56-28.65Z" style="fill:#ebebeb"></path><path d="M85.2,159.23a85.29,85.29,0,0,1-9.66.86,82.77,82.77,0,0,1-9.7.3,85.29,85.29,0,0,1,9.66-.86A82.77,82.77,0,0,1,85.2,159.23Z" style="fill:#fff"></path><path d="M85.21,164.1a83.81,83.81,0,0,1-9.66.87,85.48,85.48,0,0,1-9.7.3,80.93,80.93,0,0,1,9.66-.87A85.48,85.48,0,0,1,85.21,164.1Z" style="fill:#fff"></path><path d="M80.31,168.89a27.76,27.76,0,0,1-5.5.61,28.16,28.16,0,0,1-5.54.05,27.43,27.43,0,0,1,5.5-.62A26.8,26.8,0,0,1,80.31,168.89Z" style="fill:#fff"></path><polygon points="139.74 87.98 142.6 154.33 225.43 155.33 221.72 88.86 139.74 87.98" style="fill:#ebebeb"></polygon><rect x="138.78" y="87.51" width="82.28" height="62.13" style="fill:#f5f5f5"></rect><path d="M221.06,149.64s0-.4,0-1.16,0-1.87,0-3.31c0-2.91,0-7.16-.06-12.57,0-10.84-.07-26.34-.12-45.09l.23.23-82.27.05h0l.29-.28c0,22.34,0,43.5,0,62.13l-.26-.26,59.35.13,16.88.07,4.49,0h1.16l.4,0h-.37l-1.13,0-4.44,0-16.82.06-59.52.13h-.25v-.25c0-18.63,0-39.79,0-62.13v-.29h.29l82.27,0h.24v.24c-.05,18.81-.09,34.36-.12,45.23,0,5.39-.05,9.62-.06,12.52q0,2.13,0,3.27C221.08,149.27,221.06,149.64,221.06,149.64Z" style="fill:#e0e0e0"></path><rect x="148.71" y="100.67" width="33.35" height="41.98" style="fill:#f5f5f5"></rect><path d="M182.06,142.65s0-.08,0-.22,0-.35,0-.59c0-.56,0-1.32,0-2.3,0-2,0-4.94-.07-8.61,0-7.39-.08-17.85-.13-30.26l.25.25-33.35,0,.28-.27h0V112.1c0,3.72,0,7.36,0,10.89,0,7,0,13.66,0,19.66l-.23-.24,24.15.12,6.78.06,1.79,0,.63,0-.58,0-1.75,0-6.72.06-24.3.12h-.23v-.23c0-6,0-12.61,0-19.66,0-3.53,0-7.17,0-10.89V100.69h0l.28-.29,33.35,0h.26v.25c0,12.48-.1,23-.13,30.42,0,3.65-.05,6.54-.07,8.56,0,1,0,1.7,0,2.24,0,.24,0,.42,0,.57S182.07,142.65,182.06,142.65Z" style="fill:#e0e0e0"></path><rect x="149.99" y="91.06" width="63.92" height="6.05" style="fill:#f5f5f5"></rect><path d="M213.91,97.11a3.65,3.65,0,0,1,0-.41c0-.3,0-.68,0-1.18,0-1,0-2.54-.06-4.46l.11.12c-10.78.1-35.35.17-63.92.17h0l.28-.29h0v6l-.28-.28L195.3,97l13.6.08,3.7,0,1,0,.34,0a1.57,1.57,0,0,1-.3,0l-.94,0-3.63,0-13.54.08L150,97.39h-.28V94.14c0-.51,0-1,0-1.53V91.08h0c.13-.12-.28.29.29-.28h0c28.57,0,53.14.07,63.92.17H214v.11c0,2-.05,3.46-.06,4.53l0,1.15A2.37,2.37,0,0,1,213.91,97.11Z" style="fill:#e0e0e0"></path><rect x="186.15" y="100.67" width="27.76" height="25.3" style="fill:#f5f5f5"></rect><path d="M213.91,126a3.47,3.47,0,0,1,0-.49c0-.35,0-.81,0-1.37,0-1.24,0-3-.07-5.16,0-4.45-.07-10.74-.12-18.28l.24.24-27.76,0,.28-.28h0v6.77c0,2.23,0,4.41,0,6.53,0,4.24,0,8.27,0,12l-.25-.25,20,.13,5.68.06,1.52,0,.54,0a2.76,2.76,0,0,1-.48,0L212,126l-5.63.06-20.18.13h-.25V126c0-3.71,0-7.74,0-12v-13.3h0c-.26.25.34-.35.28-.28l27.76,0h.24v.24c-.05,7.61-.09,13.94-.12,18.43,0,2.16-.05,3.88-.07,5.1,0,.55,0,1,0,1.33A2.23,2.23,0,0,1,213.91,126Z" style="fill:#e0e0e0"></path><rect x="186.15" y="129.93" width="27.76" height="12.71" style="fill:#f5f5f5"></rect><path d="M213.91,142.65s0-.34,0-.93,0-1.48-.05-2.55c0-2.24-.07-5.38-.12-9.24l.21.21-27.76.08.28-.28h0v6.53c0,2.12,0,4.18,0,6.16l-.27-.27,19.85.13,5.79.07,1.56,0a2.37,2.37,0,0,1,.56,0,2.9,2.9,0,0,1-.5,0l-1.5,0-5.73.08-20,.12h-.27v-.27c0-2,0-4,0-6.16V130h0c-.07.06.53-.54.28-.29l27.76.08h.21v.2c-.05,3.91-.09,7.09-.11,9.37,0,1,0,1.88-.06,2.5A6.55,6.55,0,0,1,213.91,142.65Z" style="fill:#e0e0e0"></path><path d="M181.24,100.74C170.91,115,159,128.38,148.71,142.65" style="fill:#fff"></path><path d="M148.71,142.65s.08-.18.27-.47l.87-1.28c.77-1.11,1.91-2.68,3.34-4.61,2.87-3.85,7-9.07,11.56-14.77s8.74-10.88,11.69-14.67l3.48-4.49,1-1.22c.23-.27.35-.41.37-.4a2,2,0,0,1-.27.47l-.87,1.28c-.77,1.1-1.91,2.68-3.34,4.6-2.87,3.86-7,9.07-11.57,14.78s-8.73,10.88-11.68,14.67L150,141l-1,1.21C148.85,142.52,148.73,142.66,148.71,142.65Z" style="fill:#e0e0e0"></path><line x1="148.71" y1="100.67" x2="182.06" y2="142.65" style="fill:#fff"></line><path d="M182.06,142.65c-.12.09-7.68-9.23-16.89-20.82s-16.58-21.06-16.46-21.16,7.69,9.22,16.9,20.81S182.19,142.55,182.06,142.65Z" style="fill:#e0e0e0"></path><path d="M142.6,100.76a5.22,5.22,0,1,1-5.22-5.22A5.22,5.22,0,0,1,142.6,100.76Z" style="fill:#e0e0e0"></path><path d="M227.94,88.09a5.22,5.22,0,1,1-5.21-5.22A5.22,5.22,0,0,1,227.94,88.09Z" style="fill:#e0e0e0"></path><rect x="163.51" y="360.82" width="76.71" height="5.95" style="fill:#ebebeb"></rect><rect x="219.16" y="360.82" width="21.06" height="5.95" style="fill:#e0e0e0"></rect><path d="M153.78,366.77v26.8h-4.21v2.91h4.21v17.94h78.54V398.09H226.5v-3.55h5.82V389.2h2.58v-2.42h-3.07v-20Z" style="fill:#f5f5f5"></path><polygon points="211.46 366.84 211.46 414.12 232.32 414.12 232.32 397.8 226.5 397.8 226.5 394.54 232.32 394.54 232.32 389.2 234.9 389.2 234.9 386.48 231.83 386.48 231.83 366.77 211.46 366.84" style="fill:#e0e0e0"></polygon><path d="M213,396.09c0,.17-14.22.3-31.74.3s-31.75-.13-31.75-.3,14.21-.29,31.75-.29S213,395.93,213,396.09Z" style="fill:#e0e0e0"></path><path d="M213,393.37c0,.16-14.22.3-31.74.3s-31.75-.14-31.75-.3,14.21-.3,31.75-.3S213,393.21,213,393.37Z" style="fill:#e0e0e0"></path><path d="M217,386c0,.17-14.21.3-31.74.3s-31.74-.13-31.74-.3,14.21-.29,31.74-.29S217,385.88,217,386Z" style="fill:#e0e0e0"></path><path d="M217.42,406c0,.16-14.22.3-31.74.3s-31.75-.14-31.75-.3,14.21-.3,31.75-.3S217.42,405.85,217.42,406Z" style="fill:#e0e0e0"></path><path d="M162.69,420.09V446.9h-4.21v2.91h4.21v17.94h78.54V451.42h-5.82v-3.55h5.82v-5.34h2.58v-2.42h-3.07v-20Z" style="fill:#f5f5f5"></path><polygon points="220.37 420.17 220.37 467.45 241.23 467.45 241.23 451.12 235.41 451.12 235.41 447.87 241.23 447.98 241.23 442.64 243.86 442.65 243.81 439.89 240.74 439.81 240.74 420.1 220.37 420.17" style="fill:#e0e0e0"></polygon><path d="M221.86,449.42c0,.17-14.22.3-31.74.3s-31.75-.13-31.75-.3,14.21-.3,31.75-.3S221.86,449.26,221.86,449.42Z" style="fill:#e0e0e0"></path><path d="M221.86,446.7c0,.16-14.22.3-31.74.3s-31.75-.14-31.75-.3,14.21-.3,31.75-.3S221.86,446.53,221.86,446.7Z" style="fill:#e0e0e0"></path><path d="M225.93,439.37c0,.17-14.21.3-31.74.3s-31.74-.13-31.74-.3,14.21-.3,31.74-.3S225.93,439.21,225.93,439.37Z" style="fill:#e0e0e0"></path><path d="M226.33,459.34c0,.16-14.22.3-31.74.3s-31.75-.14-31.75-.3,14.21-.3,31.75-.3S226.33,459.17,226.33,459.34Z" style="fill:#e0e0e0"></path><path d="M161.55,313.16V340h-4.21v2.91h4.21v17.94h78.54V344.49h-5.82v-3.55h5.82V335.6h2.58v-2.42H239.6v-20Z" style="fill:#f5f5f5"></path><polygon points="219.23 313.24 219.23 360.52 240.09 360.52 240.09 344.19 234.27 344.19 234.27 340.94 240.09 341.05 240.09 335.71 242.72 335.72 242.67 332.96 239.6 332.88 239.6 313.17 219.23 313.24" style="fill:#e0e0e0"></polygon><path d="M220.72,342.49c0,.17-14.22.3-31.74.3s-31.75-.13-31.75-.3,14.21-.3,31.75-.3S220.72,342.33,220.72,342.49Z" style="fill:#e0e0e0"></path><path d="M220.72,339.77c0,.16-14.22.3-31.74.3s-31.75-.14-31.75-.3,14.21-.3,31.75-.3S220.72,339.61,220.72,339.77Z" style="fill:#e0e0e0"></path><path d="M224.79,332.44c0,.17-14.21.3-31.74.3s-31.74-.13-31.74-.3,14.21-.3,31.74-.3S224.79,332.28,224.79,332.44Z" style="fill:#e0e0e0"></path><path d="M225.19,352.41c0,.16-14.22.3-31.74.3s-31.75-.14-31.75-.3,14.21-.3,31.75-.3S225.19,352.24,225.19,352.41Z" style="fill:#e0e0e0"></path><rect x="158.37" y="414.14" width="76.71" height="5.95" style="fill:#ebebeb"></rect><rect x="214.02" y="414.14" width="21.06" height="5.95" style="fill:#e0e0e0"></rect><rect x="563.27" y="92.12" width="116.14" height="103.91" style="fill:#fafafa"></rect><path d="M679.41,196s0-.66,0-1.93,0-3.14,0-5.56c0-4.88,0-12-.06-21.1,0-18.15-.08-44.09-.14-75.32l.26.27-116.13,0h0l.31-.31c0,37.81,0,73.38,0,103.91l-.27-.27,84,.14L671,196l6.27,0,1.62,0h.55l-.52,0H677.3l-6.22,0-23.63.07-84.18.14H563V196c0-30.53,0-66.1,0-103.91v-.31h.32l116.13,0h.27v.26c-.06,31.29-.11,57.29-.14,75.49,0,9.06,0,16.17-.07,21,0,2.41,0,4.26,0,5.52S679.41,196,679.41,196Z" style="fill:#e0e0e0"></path><path d="M607.8,110.59c0,.17-6.11.31-13.65.31s-13.65-.14-13.65-.31,6.11-.32,13.65-.32S607.8,110.41,607.8,110.59Z" style="fill:#e0e0e0"></path><path d="M657,118.39c0,.17-16.8.31-37.51.31s-37.51-.14-37.51-.31,16.79-.31,37.51-.31S657,118.22,657,118.39Z" style="fill:#e0e0e0"></path><rect x="580.7" y="131.6" width="4.89" height="4.89" style="fill:#e0e0e0"></rect><rect x="592.74" y="131.6" width="4.89" height="4.89" style="fill:#e0e0e0"></rect><rect x="605.01" y="131.38" width="4.89" height="4.89" style="fill:#e0e0e0"></rect><rect x="616.83" y="131.6" width="4.89" height="4.89" style="fill:#e0e0e0"></rect><rect x="628.88" y="131.6" width="4.89" height="4.89" style="fill:#e0e0e0"></rect><rect x="640.92" y="131.6" width="4.89" height="4.89" style="fill:#e0e0e0"></rect><rect x="652.96" y="131.6" width="4.89" height="4.89" style="fill:#ebebeb"></rect><rect x="580.7" y="142.01" width="4.89" height="4.89" style="fill:#ebebeb"></rect><rect x="592.74" y="142.01" width="4.89" height="4.89" style="fill:#e0e0e0"></rect><rect x="604.79" y="142.01" width="4.89" height="4.89" style="fill:#ebebeb"></rect><rect x="616.83" y="142.01" width="4.89" height="4.89" style="fill:#e0e0e0"></rect><rect x="628.88" y="142.01" width="4.89" height="4.89" style="fill:#e0e0e0"></rect><rect x="641.14" y="141.78" width="4.89" height="4.89" style="fill:#e0e0e0"></rect><rect x="652.96" y="142.01" width="4.89" height="4.89" style="fill:#e0e0e0"></rect><rect x="580.7" y="152.41" width="4.89" height="4.89" style="fill:#e0e0e0"></rect><rect x="592.96" y="152.19" width="4.89" height="4.89" style="fill:#e0e0e0"></rect><rect x="604.79" y="152.41" width="4.89" height="4.89" style="fill:#e0e0e0"></rect><rect x="616.83" y="152.41" width="4.89" height="4.89" style="fill:#ebebeb"></rect><rect x="628.88" y="152.41" width="4.89" height="4.89" style="fill:#e0e0e0"></rect><rect x="640.92" y="152.41" width="4.89" height="4.89" style="fill:#e0e0e0"></rect><rect x="652.96" y="152.41" width="4.89" height="4.89" style="fill:#e0e0e0"></rect><rect x="580.7" y="162.81" width="4.89" height="4.89" style="fill:#e0e0e0"></rect><rect x="592.74" y="162.81" width="4.89" height="4.89" style="fill:#e0e0e0"></rect><rect x="604.79" y="162.81" width="4.89" height="4.89" style="fill:#e0e0e0"></rect><rect x="617.05" y="162.59" width="4.89" height="4.89" style="fill:#e0e0e0"></rect><rect x="628.88" y="162.81" width="4.89" height="4.89" style="fill:#e0e0e0"></rect><rect x="640.92" y="162.81" width="4.89" height="4.89" style="fill:#ebebeb"></rect><rect x="652.96" y="162.81" width="4.89" height="4.89" style="fill:#e0e0e0"></rect><rect x="580.7" y="173.21" width="4.89" height="4.89" style="fill:#e0e0e0"></rect><rect x="592.74" y="173.21" width="4.89" height="4.89" style="fill:#ebebeb"></rect><rect x="604.79" y="173.21" width="4.89" height="4.89" style="fill:#e0e0e0"></rect><rect x="616.83" y="173.21" width="4.89" height="4.89" style="fill:#e0e0e0"></rect><rect x="628.88" y="173.21" width="4.89" height="4.89" style="fill:#e0e0e0"></rect><rect x="641.14" y="172.99" width="4.89" height="4.89" style="fill:#e0e0e0"></rect><rect x="652.96" y="173.21" width="4.89" height="4.89" style="fill:#e0e0e0"></rect></g><g id="freepik--Plant--inject-17"><path d="M71.38,351.81a41.49,41.49,0,0,0-17.75-6.11c-2.9-.3-6.07-.21-8.39,1.55a1.71,1.71,0,0,0-.87,1.53,1.88,1.88,0,0,0,.82,1.05c7.23,5.51,18.15,6.2,26.19,2" style="fill:#BA68C8"></path><path d="M70.93,351.31a86.75,86.75,0,0,1-11.47-10.09,29,29,0,0,1-7.18-13.29c-.31-1.51-.41-3.25.56-4.45,9.14,7.14,16.32,16.37,18.09,27.83" style="fill:#BA68C8"></path><path d="M71.29,351.74a41.37,41.37,0,0,1,.21-15.05c1.15-4.91,3.82-9.62,8-12.42,1.58,3.69.9,7.94-.21,11.8a57.5,57.5,0,0,1-8,16.74" style="fill:#BA68C8"></path><path d="M80.25,367.79c-5.44.67-10.18,3.53-14.24,7.21a26.89,26.89,0,0,0-8.14,14c5.33-.33,9.86-4.09,13.14-8.31s5.56-8.85,9.16-12.79" style="fill:#BA68C8"></path><path d="M82.19,370.36a35.1,35.1,0,0,1,4.06-33.21c3.09,11,2,23.47-4.06,33.21" style="fill:#BA68C8"></path><path d="M94,384.46a25.38,25.38,0,0,0-24.28,14,1.88,1.88,0,0,0-.16,1.9,1.83,1.83,0,0,0,1.61.48c4.78-.31,9-3.19,12.52-6.47s6.55-7.06,10.42-9.9" style="fill:#BA68C8"></path><path d="M93.65,383.69a45.22,45.22,0,0,1-.45-25.26c.89-3.25,2.38-6.67,5.39-8.19a.82.82,0,0,1,1.34.46,15.07,15.07,0,0,1,1.27,7.24,45.7,45.7,0,0,1-1.13,7.34c-.95,4.48-1.45,9.3-3.91,13.16a26.84,26.84,0,0,0-1.56,2.89c-.47,1-.47,1.33-.9,2.11" style="fill:#BA68C8"></path><path d="M125,388.36c-2.32-8.83.14-19.54,5.71-26.78.41-.53.95-1.1,1.62-1,1,.1,1.29,1.46,1.25,2.49A48.51,48.51,0,0,1,125,388.36" style="fill:#BA68C8"></path><path d="M127.81,390.29c10.72,2.79,23,.08,31.95-6.5a25.88,25.88,0,0,0-17.3-2.13c-5.78,1.33-11.06,3.92-14.65,8.63" style="fill:#BA68C8"></path><path d="M130.19,384.41c6-9.8,17.53-16.19,29-16.77-1.32,4.67-5.16,8.29-9.48,10.49s-9.16,3.14-13.93,4.07c-1.85.36-4.39.75-5.59,2.21" style="fill:#BA68C8"></path><path d="M125.58,355.88c1.63-5.57,3.26-11.2,3.71-17s-.38-11.83-3.38-16.8c-5.62,10.86-6.18,23.55-.5,34.37" style="fill:#BA68C8"></path><path d="M144.47,346.33c6.57-11.93,20-21.46,33.5-22.79-5.22,13-19.48,23.07-33.5,22.79" style="fill:#BA68C8"></path><path d="M140.34,348.67c9.79,1.49,18.13,7.74,27.28,11.53a12.14,12.14,0,0,0,6.16,1.18,4.83,4.83,0,0,0,3-8.54,13.22,13.22,0,0,0-4.48-2.71c-10-4.15-20.65-4.26-31.14-1.74" style="fill:#BA68C8"></path><path d="M134.68,355.53c2.22.64,3,1.78,4.73,3.28a50.9,50.9,0,0,0,20.68,10.62c.79.2,1.83.28,2.22-.44s-.09-1.37-.54-1.93a28.48,28.48,0,0,0-12.48-8.48c-4.78-1.78-8.91-3.92-14.61-3.46" style="fill:#BA68C8"></path><path d="M128.29,314.07a39.16,39.16,0,0,0,30,10.21,2.08,2.08,0,0,0,1.36-.49c.76-.82-.15-2.09-1-2.78-8.82-6.87-19.51-9.73-30.34-6.94" style="fill:#BA68C8"></path><path d="M135.87,311.3a41.81,41.81,0,0,1,37.44-6.18c-4.71,4.65-11.26,7.15-17.84,7.83a56.35,56.35,0,0,1-19.6-1.65" style="fill:#BA68C8"></path><path d="M132.86,292.24c-.87-8.8-.31-15.75-.92-24.6-.05-.71-.2-1.56-.86-1.81-.92-.36-1.69.78-2,1.71a28.23,28.23,0,0,0,3.75,24.51" style="fill:#BA68C8"></path><path d="M132.22,293.22c6-3.69,10.45-8.51,14.59-14.18,2.88-3.94,5.31-8.66,4.65-13.5-4-.08-7.89,2.15-10.52,5.22a29.48,29.48,0,0,0-5.36,10.79c-1.17,3.88-2,7.86-3.36,11.67" style="fill:#BA68C8"></path><path d="M146.55,289.24a117.71,117.71,0,0,0,35.9-21.17c-4.29-1.73-9.2-.69-13.48,1-9.8,3.95-17.8,10.62-22.6,20" style="fill:#BA68C8"></path><path d="M136.25,298c6.63.72,13.36,1.19,19.93.09s12.57-3.64,18.61-6.18a2.19,2.19,0,0,0,1.27-1,1.44,1.44,0,0,0-.46-1.59,3.73,3.73,0,0,0-1.58-.75c-6.57-1.83-13.65-1-20.11,1.2A93.1,93.1,0,0,0,136.25,298" style="fill:#BA68C8"></path><path d="M98.41,314.37c-4.52-9.12-4.23-19.77-.32-29.18,2.75,4.19,3.08,9.52,2.58,14.51s-2,10.12-2.12,15.13" style="fill:#BA68C8"></path><path d="M80.35,305.26A40.74,40.74,0,0,0,50.1,318.15c5.64.88,11.44-.57,16.57-3.07s9.67-6,14.19-9.5" style="fill:#BA68C8"></path><path d="M68.21,301.2c-5.53-.45-10.84-1.13-16.15.5S41.92,307,39.76,312.13a29.13,29.13,0,0,0,15.13-2.86,86.21,86.21,0,0,0,13.32-8.07" style="fill:#BA68C8"></path><path d="M86.19,301.39c-5-3.26-10.07-6.57-15.86-7.92s-12.49-.35-16.52,4c4.68,2.74,10.36,3.07,15.79,3.06s12.09-.06,17.21,1.75" style="fill:#BA68C8"></path><path d="M86.22,301.65c-8.5-8.34-11.72-23.32-8.3-34.72a52.87,52.87,0,0,1,8.3,34.72" style="fill:#BA68C8"></path><path d="M109.57,278c1.6-3.72,2.73-7.63,4.16-11.42a33,33,0,0,1,5.94-10.53,15.64,15.64,0,0,1,10.52-5.45,42.36,42.36,0,0,1-20.41,27.46" style="fill:#BA68C8"></path><path d="M105.34,282.94c-2.65-3.65-5.71-8.6-9.3-11.32s-8.28-4.37-12.67-3.33a29.5,29.5,0,0,0,22,14.65" style="fill:#BA68C8"></path><path d="M106.19,278.32c-1.74-4.41-3.49-8.87-4.19-13.57s-.28-9.7,2.12-13.79c4.66,8.81,6.17,18.27,2.31,27.46" style="fill:#BA68C8"></path><path d="M109.61,251c2.64-8.74,10.64-15.17,19.28-18.12a7.29,7.29,0,0,1,3.38-.51,2.93,2.93,0,0,1,2.49,2.08c.31,1.49-.91,2.82-2.07,3.81A65.61,65.61,0,0,1,109.61,251" style="fill:#BA68C8"></path><path d="M109.71,243.81c.33-5.63.68-11.34,2.52-16.68s5.36-10.34,10.5-12.68c.87,5.69-1.64,11.35-4.67,16.24s-6.67,9.52-8.49,15" style="fill:#BA68C8"></path><path d="M109.57,247.69c-2.18-6.37-2.41-14.45-6.22-20-2.67-3.88-6.93-6.52-9.23-10.63a16.14,16.14,0,0,0,.54,12.07,34.85,34.85,0,0,0,7,10.09c2.82,3,5.24,5.28,7.86,8.47" style="fill:#BA68C8"></path><path d="M109.61,435.19c-.17,0-.31-42.47-.33-94.85s.12-94.87.29-94.87.32,42.47.33,94.87S109.78,435.19,109.61,435.19Z" style="fill:#263238"></path><path d="M146.73,308a9.58,9.58,0,0,1-1.6.6L140.74,310c-3.71,1.27-8.8,3.1-14.32,5.36s-10.63,4.25-13.57,6.8a10,10,0,0,0-2.73,3.6c-.42,1-.49,1.61-.55,1.6s0-.15,0-.45a6.8,6.8,0,0,1,.31-1.23,9.67,9.67,0,0,1,2.66-3.85,24,24,0,0,1,5.89-3.65c2.35-1.1,5-2.25,7.73-3.39,5.54-2.27,10.67-4,14.42-5.2,1.88-.58,3.4-1,4.46-1.3A10,10,0,0,1,146.73,308Z" style="fill:#263238"></path><path d="M158.89,278.08a2.68,2.68,0,0,1-.44.48l-1.37,1.28L152,284.46l-16.94,15.08c-6.61,5.88-12.32,11.5-16.28,15.74-2,2.11-3.54,3.86-4.61,5.09l-1.23,1.4a2.93,2.93,0,0,1-.46.47,2.46,2.46,0,0,1,.36-.55c.26-.34.64-.85,1.15-1.48,1-1.27,2.52-3.07,4.47-5.23a216.41,216.41,0,0,1,16.19-15.9c6.64-5.87,12.67-11.14,17.06-14.95l5.22-4.47,1.44-1.2A2.82,2.82,0,0,1,158.89,278.08Z" style="fill:#263238"></path><path d="M127.93,305.52c-.18-.08,1.2-3.27,2.58-7.3s2-7.43,2.22-7.4-.23,3.52-1.64,7.6a48.74,48.74,0,0,1-2.06,5.1A8.24,8.24,0,0,1,127.93,305.52Z" style="fill:#263238"></path><path d="M109.65,331.23a9,9,0,0,1-1-1.18L106,326.7c-2.19-2.83-5.22-6.74-8.62-11s-6.52-8.12-8.78-10.89L86,301.48a8.79,8.79,0,0,1-.92-1.26,6.54,6.54,0,0,1,1.11,1.1c.68.74,1.64,1.82,2.81,3.18,2.35,2.71,5.53,6.51,8.93,10.79s6.38,8.25,8.49,11.15c1,1.45,1.89,2.63,2.45,3.46A7.43,7.43,0,0,1,109.65,331.23Z" style="fill:#263238"></path><path d="M101.51,320.78c-.1.11-2.27-2.47-3.41-6.38a18.28,18.28,0,0,1-.77-6.44l.27,0c-.12.5-.21.76-.26.75s0-.28,0-.79l.27,0a29.75,29.75,0,0,0,1.09,6.26C99.79,318,101.68,320.68,101.51,320.78Z" style="fill:#263238"></path><path d="M91,307.56a11.58,11.58,0,0,0-2.38-1.38,16,16,0,0,0-6.61-.52,40.88,40.88,0,0,0-6.66,1.07,21,21,0,0,1-2.74.66,9.16,9.16,0,0,1,2.62-1.08A30.93,30.93,0,0,1,82,305a14.42,14.42,0,0,1,6.82.74A4.34,4.34,0,0,1,91,307.56Z" style="fill:#263238"></path><path d="M88.52,304.36c0,.1-1.39-.55-3.65-1.33a36.78,36.78,0,0,0-18.38-1.4c-2.35.42-3.77.86-3.81.76a3.67,3.67,0,0,1,1-.41,20.9,20.9,0,0,1,2.76-.77A32.38,32.38,0,0,1,85,302.63a22.44,22.44,0,0,1,2.6,1.18A3.66,3.66,0,0,1,88.52,304.36Z" style="fill:#263238"></path><path d="M109.57,290.82c-.16,0-1.36-4.1-2.66-9.24s-2.23-9.35-2.06-9.39,1.35,4.09,2.65,9.24S109.73,290.77,109.57,290.82Z" style="fill:#263238"></path><path d="M109.74,290.82c-.18.06-.95-2.71-2.95-5.53a24.23,24.23,0,0,0-4.34-4.48,4,4,0,0,1,1.68.86,13.52,13.52,0,0,1,3.16,3.26C109.37,287.87,109.89,290.81,109.74,290.82Z" style="fill:#263238"></path><path d="M109.61,412.55c-.06,0-.19-1-.67-2.83a39.63,39.63,0,0,0-2.84-7.35c-2.93-6-8.27-13.6-15-21.22-3.37-3.84-6.63-7.46-9.4-10.93a76.28,76.28,0,0,1-6.71-9.69,45.93,45.93,0,0,1-3.39-7.18c-.32-.89-.54-1.58-.67-2.06a3.78,3.78,0,0,1-.17-.73c.05,0,.36,1,1.06,2.7a52.7,52.7,0,0,0,3.54,7.05,81.08,81.08,0,0,0,6.78,9.56c2.78,3.43,6,7,9.42,10.88,6.8,7.64,12.13,15.34,15,21.43a36.54,36.54,0,0,1,2.67,7.49,20.64,20.64,0,0,1,.38,2.13A3.52,3.52,0,0,1,109.61,412.55Z" style="fill:#263238"></path><path d="M143.15,374.67a15.71,15.71,0,0,1-1.76,1,40,40,0,0,0-4.56,3,51.44,51.44,0,0,0-6,5.46c-2.1,2.22-4.27,4.8-6.48,7.56-4.42,5.54-8.55,10.45-11,14.36-1.26,1.94-2.17,3.58-2.77,4.73a14,14,0,0,1-1,1.77,1.82,1.82,0,0,1,.16-.5c.14-.32.31-.79.6-1.38a44.33,44.33,0,0,1,2.61-4.85c2.4-4,6.5-9,10.91-14.52,2.22-2.76,4.41-5.35,6.55-7.56a47.9,47.9,0,0,1,6.13-5.42,31.63,31.63,0,0,1,4.71-2.88c.59-.29,1.06-.47,1.38-.61A1.39,1.39,0,0,1,143.15,374.67Z" style="fill:#263238"></path><path d="M143.81,387a24.17,24.17,0,0,1-3.72.54,49.21,49.21,0,0,0-8.81,1.74,26.43,26.43,0,0,0-7.89,4.14c-1.82,1.41-2.67,2.57-2.76,2.5a2.81,2.81,0,0,1,.55-.85,14.35,14.35,0,0,1,1.94-2,24,24,0,0,1,8-4.38,39.59,39.59,0,0,1,9-1.59A21.58,21.58,0,0,1,143.81,387Z" style="fill:#263238"></path><path d="M121.72,394.52c-.2-.11,1.48-2.67,2.77-6.11s1.51-6.51,1.73-6.48a6.12,6.12,0,0,1-.06,2,21.42,21.42,0,0,1-1.09,4.69,23.22,23.22,0,0,1-2.15,4.31A6.4,6.4,0,0,1,121.72,394.52Z" style="fill:#263238"></path><path d="M154,341.67a2.48,2.48,0,0,1-.59.32l-1.75.79c-.76.33-1.69.74-2.74,1.3s-2.27,1.1-3.55,1.86l-2,1.15c-.7.41-1.4.89-2.14,1.35-1.49.91-3,2-4.59,3.16a86.62,86.62,0,0,0-9.58,8.43,85.47,85.47,0,0,0-8.09,9.86c-1.09,1.64-2.15,3.17-3,4.7-.43.75-.89,1.46-1.27,2.18s-.74,1.4-1.08,2.06c-.72,1.3-1.24,2.55-1.74,3.62s-.9,2-1.21,2.78l-.73,1.77a2.61,2.61,0,0,1-.29.6,2.8,2.8,0,0,1,.17-.64c.17-.48.38-1.08.63-1.82s.62-1.75,1.11-2.83,1-2.35,1.67-3.67q.51-1,1.05-2.1c.38-.72.82-1.45,1.26-2.21.84-1.55,1.89-3.1,3-4.76a75.86,75.86,0,0,1,17.8-18.42c1.62-1.14,3.14-2.24,4.66-3.14.75-.46,1.45-.93,2.17-1.32l2.06-1.13c1.29-.75,2.54-1.28,3.61-1.79s2-.91,2.79-1.21l1.79-.69A3,3,0,0,1,154,341.67Z" style="fill:#263238"></path><path d="M127.47,359.46a4.31,4.31,0,0,1,1.46-2.18,9.2,9.2,0,0,1,5.88-2.25,15.85,15.85,0,0,1,6.19,1.21,8.65,8.65,0,0,1,2.34,1.13,13.81,13.81,0,0,1-2.48-.72,18.39,18.39,0,0,0-6-1,9.58,9.58,0,0,0-5.62,2A17.92,17.92,0,0,0,127.47,359.46Z" style="fill:#263238"></path><path d="M123.5,363.55c-.17-.09,1.33-2.29,1.67-5.43s-.56-5.62-.37-5.67.4.54.69,1.58a11.28,11.28,0,0,1-.95,8.14C124,363.11,123.56,363.59,123.5,363.55Z" style="fill:#263238"></path><path d="M80.28,418.63c.91,16.24,5.8,32.74,13.33,49.43h32.71c7.18-16.52,11.73-33,12.54-49.43Z" style="fill:#263238"></path><path d="M133.56,444.9c0,.17-10.77.31-24.06.31s-24.06-.14-24.06-.31,10.77-.31,24.06-.31S133.56,444.73,133.56,444.9Z" style="fill:#fafafa"></path><path d="M132.83,450.78c0,.17-10.1.31-22.55.31s-22.56-.14-22.56-.31,10.1-.31,22.56-.31S132.83,450.61,132.83,450.78Z" style="fill:#fafafa"></path></g><g id="freepik--Character--inject-17"><path d="M272.21,410.17l-27.1,22.23,27.48,33.86c3.08-2.82-4.65-25.61-4.65-25.61l17.95-13.53Z" style="fill:#BA68C8"></path><g style="opacity:0.6000000000000001"><path d="M260.91,429a1.77,1.77,0,0,0-2.35.32,1.72,1.72,0,0,0,.3,2.34,1.88,1.88,0,0,0,2.49-.36,1.78,1.78,0,0,0-.58-2.4" style="fill:#fff"></path></g><g style="opacity:0.6000000000000001"><path d="M245.22,432.31l2.72-2.26,25.19,33.57s.55,2-.65,2.73Z" style="fill:#fff"></path></g><path d="M268.56,441.06c-.17.12-.91-.64-2.11-1s-2.24-.25-2.29-.46,1.09-.73,2.53-.25S268.74,441,268.56,441.06Z" style="fill:#263238"></path><path d="M270,445.8c-.12.17-1-.32-2.14-.31s-2,.44-2.16.27.73-1,2.17-1S270.13,445.67,270,445.8Z" style="fill:#263238"></path><path d="M267.36,451.27c-.16-.12.48-1,1.73-1.34s2.24.17,2.16.36-.95.09-2,.36S267.51,451.42,267.36,451.27Z" style="fill:#263238"></path><path d="M272.31,437.52c-.21.05-.6-.89-1.42-1.78s-1.71-1.37-1.63-1.57,1.23,0,2.18,1.08S272.51,437.49,272.31,437.52Z" style="fill:#263238"></path><path d="M275.67,433.45c-.06.06-.7-.51-1.37-1.7a9.94,9.94,0,0,1-.89-2.22,9.78,9.78,0,0,1-.27-1.39,2.56,2.56,0,0,1,0-.84.93.93,0,0,1,.82-.79,1.15,1.15,0,0,1,1,.42,2.75,2.75,0,0,1,.43.71,7.38,7.38,0,0,1,.5,1.35,7.74,7.74,0,0,1,.24,2.39,3.63,3.63,0,0,1-.57,2.12c-.11,0,.09-.84,0-2.12a8.42,8.42,0,0,0-.37-2.21,8.77,8.77,0,0,0-.49-1.21c-.2-.44-.44-.75-.68-.71-.09,0-.11,0-.16.19a2.22,2.22,0,0,0,0,.62,13.27,13.27,0,0,0,.21,1.31,12.3,12.3,0,0,0,.71,2.15A15.9,15.9,0,0,1,275.67,433.45Z" style="fill:#263238"></path><path d="M275.26,433.43c-.07,0,.25-.85,1.28-1.78a6.73,6.73,0,0,1,2-1.27A6.52,6.52,0,0,1,280,430a1.81,1.81,0,0,1,1.73.39,1,1,0,0,1,.11,1.09,3.12,3.12,0,0,1-.48.68,5.08,5.08,0,0,1-3.48,1.63c-1.42.05-2.18-.48-2.13-.54s.82.19,2.08,0a5,5,0,0,0,2-.75,4.36,4.36,0,0,0,.95-.83c.32-.34.5-.72.35-.82a1.22,1.22,0,0,0-1-.14,6.83,6.83,0,0,0-1.26.32,7.79,7.79,0,0,0-2,1.05C275.84,432.82,275.36,433.5,275.26,433.43Z" style="fill:#263238"></path><path d="M259.56,433.15l.33,35.05L303.5,468c-.28-4.16-22.87-12.43-22.87-12.43l.71-22.47Z" style="fill:#BA68C8"></path><g style="opacity:0.6000000000000001"><path d="M267.13,453.75a1.77,1.77,0,0,0-1.22,2,1.7,1.7,0,0,0,2,1.23,1.86,1.86,0,0,0,1.28-2.16A1.77,1.77,0,0,0,267,453.8" style="fill:#fff"></path></g><g style="opacity:0.6000000000000001"><path d="M259.88,468.06l-.05-3.54,41.94,1.42s1.94.85,1.72,2.22Z" style="fill:#fff"></path></g><path d="M281.33,455.35c0,.22-1.07.32-2.11,1s-1.6,1.58-1.8,1.5.12-1.32,1.4-2.13S281.38,455.16,281.33,455.35Z" style="fill:#263238"></path><path d="M285.92,457.23c0,.2-.88.57-1.6,1.47s-.92,1.86-1.13,1.85-.35-1.21.56-2.32S285.91,457,285.92,457.23Z" style="fill:#263238"></path><path d="M288.54,462.69c-.2.05-.5-1,0-2.19s1.54-1.63,1.63-1.46-.52.81-.95,1.77S288.75,462.67,288.54,462.69Z" style="fill:#263238"></path><path d="M280.93,450.22c-.09.19-1.07-.1-2.27,0s-2.14.47-2.25.29.78-.95,2.2-1S281,450.05,280.93,450.22Z" style="fill:#263238"></path><path d="M279.87,445.05a4.22,4.22,0,0,1-2.19,0,9.86,9.86,0,0,1-2.29-.69,10.09,10.09,0,0,1-1.25-.66,2.8,2.8,0,0,1-.66-.51.92.92,0,0,1-.11-1.13,1.16,1.16,0,0,1,.93-.49,2.47,2.47,0,0,1,.82.11,6.79,6.79,0,0,1,1.36.46,7.43,7.43,0,0,1,2,1.31c1,.93,1.37,1.73,1.3,1.77s-.6-.6-1.63-1.36a8.26,8.26,0,0,0-1.95-1.09,7.74,7.74,0,0,0-1.26-.39c-.46-.11-.85-.12-1,.09s-.05.11.05.24a2.23,2.23,0,0,0,.48.38,12.42,12.42,0,0,0,1.16.65,11.35,11.35,0,0,0,2.12.8A15,15,0,0,1,279.87,445.05Z" style="fill:#263238"></path><path d="M279.59,445.35a3.45,3.45,0,0,1-.58-2.11,7,7,0,0,1,.28-2.39,8.31,8.31,0,0,1,.55-1.33,1.81,1.81,0,0,1,1.39-1.1,1,1,0,0,1,.92.6,3,3,0,0,1,.22.8,4.54,4.54,0,0,1,0,1.47,5,5,0,0,1-.92,2.26c-.85,1.13-1.74,1.39-1.75,1.32s.67-.52,1.31-1.61a5,5,0,0,0,.68-2.05,4.19,4.19,0,0,0,0-1.27c-.07-.46-.25-.83-.42-.78s-.58.34-.76.71a8.29,8.29,0,0,0-.54,1.19,8,8,0,0,0-.41,2.18C279.48,444.52,279.71,445.32,279.59,445.35Z" style="fill:#263238"></path><path d="M262.24,228.52s-6.12,6.54-9.12,12.81-4.92,21.24-4.92,21.24S239.76,281.37,241,291s9.88,75.4,9.88,75.4-.42,63.94,5.66,75.34l1.36,6.15,24.59-4.36h0l1.38-3.38,3.74-125.69L303,229.09Z" style="fill:#263238"></path><path d="M273.29,254.2a3.63,3.63,0,0,1-.16-1c-.07-.64-.12-1.59-.13-2.75a80.34,80.34,0,0,1,.54-9c.4-3.42.76-6.51,1-9a29.06,29.06,0,0,1,.48-3.72,20.19,20.19,0,0,1-.06,3.75c-.15,2.32-.5,5.51-.88,9s-.63,6.69-.71,9A37.07,37.07,0,0,1,273.29,254.2Z" style="fill:#455a64"></path><path d="M277.85,239.08a16.61,16.61,0,0,1-1.23-5.09,16.26,16.26,0,0,1-.13-5.23c.17,0,.34,2.31.72,5.15S278,239,277.85,239.08Z" style="fill:#455a64"></path><path d="M293.64,234c-.11,0-.07-.8-.95-1.42a1.84,1.84,0,0,0-1.68-.17,1.75,1.75,0,0,0,.05,3.27,1.83,1.83,0,0,0,1.68-.23c.85-.65.79-1.48.9-1.45s.09.18.05.52a2,2,0,0,1-.69,1.26,2.21,2.21,0,0,1-2.12.41,2.27,2.27,0,0,1-.07-4.29,2.19,2.19,0,0,1,2.13.35,2,2,0,0,1,.74,1.23C293.73,233.84,293.67,234,293.64,234Z" style="fill:#455a64"></path><path d="M285.92,372.72a3.38,3.38,0,0,1,0,.69c0,.51,0,1.16,0,2,0,1.71-.05,4.18-.12,7.23-.14,6.1-.48,14.53-.88,23.83s-.67,17.73-.8,23.83c-.06,3-.11,5.43-.14,7.22,0,.8,0,1.45-.06,2a3.15,3.15,0,0,1-.06.69,3.15,3.15,0,0,1-.06-.69c0-.51,0-1.16-.06-2,0-1.71-.05-4.18,0-7.23,0-6.1.23-14.54.63-23.85s.78-17.65,1.05-23.81c.13-3,.23-5.44.31-7.22,0-.8.07-1.45.1-2A2.91,2.91,0,0,1,285.92,372.72Z" style="fill:#455a64"></path><path d="M319.09,245.78s12.1,82.31,13.4,96.36-48.74,88.11-48.74,88.11l-22.88-23.83,32.84-61L283,283.87l14.85-54.35,19.31-.3Z" style="fill:#263238"></path><path d="M252.82,422a15.71,15.71,0,0,0,.18,1.79c.15,1.17.44,2.9.84,5.12.82,4.46,2.15,10.92,3.93,19l0,.17.17,0,24.6-4.31.19,0v-.19c.69-16.87,1.5-37,2.38-58.67.91-23.27,1.75-44.85,2.44-62.56v0c1.84-14.22,3.37-26,4.43-34.21.52-4.09.92-7.3,1.2-9.51l.3-2.5c.06-.56.07-.86.07-.86s-.06.29-.14.85-.21,1.42-.37,2.49c-.3,2.21-.75,5.41-1.32,9.5-1.11,8.22-2.7,20-4.63,34.18h0c-.72,17.71-1.59,39.28-2.54,62.56-.84,21.63-1.63,41.8-2.29,58.67l.2-.22-24.58,4.42.21.14c-1.83-8.06-3.21-14.5-4.09-18.94-.43-2.22-.75-3.94-.93-5.1-.11-.59-.16-1-.2-1.33A4,4,0,0,0,252.82,422Z" style="fill:#455a64"></path><path d="M298.3,85.59c1.7,1.53,6,1.81,7.74,3.34,2,1.77,3.78,4.81,5.27,7a25.54,25.54,0,0,1,3.09,6.93c5.36,17.5,2.33,37.11,9.81,53.82,1,2.29,2.2,5.13.66,7.12a7.8,7.8,0,0,1-2.16,1.65,20.76,20.76,0,0,0-5.57,5,7,7,0,0,1-2.36,2.37,5.84,5.84,0,0,1-2.88.3c-3.6-.28-7.43-1-9.93-3.64a11.39,11.39,0,0,1-2.58-4.66,31.89,31.89,0,0,1-1-9q0-5.3.07-10.58" style="fill:#263238"></path><path d="M249.79,155.66l24.06-10.37,24.39.64,14.69,6s6.3,34.12,5,41.66c-2.14,12.14,4.36,57.39,7.21,71.57,2.46,12.28-4.74,19.57-8.36,22.91-18.43,17-28,14.71-41.47,5.88-13.7-9-32.48-16.41-32.48-16.41,2.21-14.62,5.74-28.35,11.35-40.69l5.9-20.84-2.55-17.71Z" style="fill:#BA68C8"></path><path d="M272.25,107.51l1.55,41.83a12.44,12.44,0,0,0,13.51,11.94h0a12.06,12.06,0,0,0,11-12.79c-.12-3.15-.06-6.88-.05-7.2,0,0,10.48-2.35,10.86-12.92.18-5.11.06-13.69-.48-23.23a19.7,19.7,0,0,0-19.21-18.55l-1,0C277.38,87,271.56,96.51,272.25,107.51Z" style="fill:#ffbe9d"></path><path d="M298.3,141.34a24.55,24.55,0,0,1-13.69-4.24s3.08,7.69,13.65,7Z" style="fill:#eb996e"></path><path d="M306.09,113.69a1.51,1.51,0,0,1-1.49,1.49,1.44,1.44,0,0,1-1.52-1.39,1.51,1.51,0,0,1,1.49-1.49A1.44,1.44,0,0,1,306.09,113.69Z" style="fill:#263238"></path><path d="M306.31,111c-.19.19-1.32-.68-2.94-.72s-2.84.75-3,.55.12-.44.64-.81a4.17,4.17,0,0,1,2.42-.68,3.92,3.92,0,0,1,2.33.82C306.24,110.51,306.4,110.87,306.31,111Z" style="fill:#263238"></path><path d="M290.69,113.69a1.51,1.51,0,0,1-1.49,1.49,1.45,1.45,0,0,1-1.53-1.39,1.51,1.51,0,0,1,1.49-1.49A1.44,1.44,0,0,1,290.69,113.69Z" style="fill:#263238"></path><path d="M290.78,111.19c-.2.19-1.32-.68-2.94-.72s-2.84.75-3,.55.11-.44.64-.81a4.16,4.16,0,0,1,2.41-.68,3.93,3.93,0,0,1,2.34.82C290.71,110.74,290.87,111.1,290.78,111.19Z" style="fill:#263238"></path><path d="M295.87,122.39a11.1,11.1,0,0,1,2.65-.41c.42,0,.81-.11.89-.39a2.16,2.16,0,0,0-.25-1.24c-.37-1-.75-2.07-1.15-3.18-1.6-4.54-2.75-8.27-2.56-8.33s1.62,3.56,3.22,8.1c.38,1.12.75,2.18,1.1,3.2a2.44,2.44,0,0,1,.18,1.64,1.08,1.08,0,0,1-.7.59,3.19,3.19,0,0,1-.7.08A10.77,10.77,0,0,1,295.87,122.39Z" style="fill:#263238"></path><path d="M290.27,106.51c-.18.43-1.79.14-3.71.27s-3.48.58-3.71.17c-.1-.2.19-.6.83-1a4.65,4.65,0,0,1,2.95-.74,5.5,5.5,0,0,1,2.7.4C290,105.94,290.35,106.3,290.27,106.51Z" style="fill:#263238"></path><path d="M306.73,105.68c-.34.37-1.65,0-3.22-.06s-2.91.21-3.21-.18c-.14-.18.08-.55.66-.89a5,5,0,0,1,2.63-.58,4.84,4.84,0,0,1,2.55.77C306.7,105.12,306.88,105.51,306.73,105.68Z" style="fill:#263238"></path><path d="M300.51,88.7a1.48,1.48,0,0,1,0,.21h0Z" style="fill:#263238"></path><path d="M295.86,127.65a2.78,2.78,0,0,0-.26-.75,1.84,1.84,0,0,0-1.47-.9,2.35,2.35,0,0,0-1.65.59,1.84,1.84,0,0,0-.64,1.38.91.91,0,0,0,.1.4,2.45,2.45,0,0,0,1.72,1.44,2,2,0,0,0,2-.82,1.56,1.56,0,0,0,.24-.63A2.13,2.13,0,0,0,295.86,127.65Z" style="fill:#eb996e"></path><path d="M297,128.6c0-.18-1.41-.43-3-1.21s-2.66-1.74-2.79-1.61a5,5,0,0,0,2.52,2.17C295.48,128.78,297,128.76,297,128.6Z" style="fill:#263238"></path><path d="M299.93,87.67c-2-3.59-6-5.39-10.45-5.74-5.46-.43-10.85,2.12-14.88,5.89s-6.85,8.69-9.23,13.71c-1.57,3.29-2.4,11.29-6.35,14.64,0,0-2.78,2-3.82,7.1h0A39.26,39.26,0,0,0,254,135.38c.17,2.25.54,4.55,0,6.73a41.44,41.44,0,0,1-2.11,4.84,11.1,11.1,0,0,0,.3,7.82l21.51-8.69-.61-16.31s-.71-9.87,3.28-10.51c4.95-.79,1.52-6.33,2-10.08a24,24,0,0,1,3.52-10.63c2.12-3.09,5.61-5.4,9.32-5.29,1.9.06,3.76.73,5.66.58l.34,0A4.12,4.12,0,0,0,299.93,87.67Z" style="fill:#263238"></path><path d="M254.34,134.56a4.33,4.33,0,0,1-.15-.79c-.07-.52-.17-1.28-.25-2.28a26.09,26.09,0,0,1-.07-3.64,13.54,13.54,0,0,1,1-4.72,9.67,9.67,0,0,1,1.53-2.39,13.69,13.69,0,0,1,2.3-2c1.69-1.25,3.68-2.33,5.2-4.07a20.92,20.92,0,0,0,3.49-6.37c.87-2.4,2-4.83,3-7.35a58.71,58.71,0,0,1,3.4-7.19A20.36,20.36,0,0,1,278.55,88a12.43,12.43,0,0,1,6.13-2.75,16.77,16.77,0,0,1,5.85.27A15.07,15.07,0,0,1,298,89.35a8.56,8.56,0,0,1,1.86,2.47,15.77,15.77,0,0,0-2-2.32,15.27,15.27,0,0,0-7.4-3.63,16.62,16.62,0,0,0-5.72-.2,12.08,12.08,0,0,0-5.89,2.69A20.12,20.12,0,0,0,274.27,94a59.5,59.5,0,0,0-3.36,7.14c-1,2.51-2.11,4.91-3,7.32a21.05,21.05,0,0,1-3.6,6.5c-1.6,1.82-3.64,2.9-5.31,4.11a13.38,13.38,0,0,0-2.25,1.94,9.26,9.26,0,0,0-1.49,2.29,13.36,13.36,0,0,0-1.1,4.58,29.22,29.22,0,0,0,0,3.61c.05,1,.12,1.76.16,2.28A6.8,6.8,0,0,1,254.34,134.56Z" style="fill:#455a64"></path><path d="M320.49,155.42a8.84,8.84,0,0,1-2.64-1.28,14.79,14.79,0,0,1-5-6.15,29.33,29.33,0,0,1-2.16-11.61c-.12-4.47.22-9.36.54-14.47a94.11,94.11,0,0,0,.09-14.41,40.47,40.47,0,0,0-1-6.19,20.68,20.68,0,0,0-1.77-5.14,11.63,11.63,0,0,0-2.79-3.46c-1-.87-1.95-1.53-2.7-2.09s-1.33-1-1.71-1.34a3.74,3.74,0,0,1-.55-.51,4.1,4.1,0,0,1,.61.43c.4.3,1,.72,1.77,1.25s1.73,1.18,2.76,2A11.55,11.55,0,0,1,308.86,96a20.3,20.3,0,0,1,1.87,5.2,41.54,41.54,0,0,1,1,6.25,92.4,92.4,0,0,1,0,14.49c-.32,5.12-.68,10-.58,14.43a29.54,29.54,0,0,0,2,11.47A14.9,14.9,0,0,0,318,154,17.49,17.49,0,0,0,320.49,155.42Z" style="fill:#455a64"></path><path d="M255.55,132.56s0-.05-.06-.17a3.79,3.79,0,0,1-.1-.51,7.86,7.86,0,0,1,0-2,14.93,14.93,0,0,1,.79-3.09,28.74,28.74,0,0,1,1.69-3.85,10.06,10.06,0,0,1,1.46-2,10.51,10.51,0,0,1,2.12-1.64,30.89,30.89,0,0,0,4.88-3.1,15.49,15.49,0,0,0,3.83-5,36.61,36.61,0,0,0,2.24-6.48,50,50,0,0,1,2.1-6.61,15.64,15.64,0,0,1,3.58-5.42,11.24,11.24,0,0,1,5.18-2.77,11.65,11.65,0,0,1,5.12,0,27.27,27.27,0,0,1,4,1.24c1.15.43,2.14.84,2.93,1.19s1.41.64,1.82.85a3.39,3.39,0,0,1,.61.34,4,4,0,0,1-.66-.25l-1.85-.75c-.8-.32-1.79-.7-2.95-1.11a28.48,28.48,0,0,0-4-1.15,11.38,11.38,0,0,0-4.95.09,10.93,10.93,0,0,0-4.95,2.7A15.21,15.21,0,0,0,275,98.29a51.91,51.91,0,0,0-2.07,6.56,35.79,35.79,0,0,1-2.29,6.56,15.7,15.7,0,0,1-4,5.13,30.34,30.34,0,0,1-5,3.11,9.66,9.66,0,0,0-2.06,1.55,9.43,9.43,0,0,0-1.43,1.91,23.83,23.83,0,0,0-2.6,6.78A10.32,10.32,0,0,0,255.55,132.56Z" style="fill:#455a64"></path><path d="M271.58,118.2c-.08,0-1.91-1.59-1.91-1.59s-2.25,2-2.48,3.14-.33,4.24.43,5.33a1.76,1.76,0,0,0,1.88.76l-.2-4.84Z" style="fill:#e0e0e0"></path><path d="M276,118.13c-.17-.09-7.09-2.51-7.24,4.67s7.1,5.85,7.11,5.64S276,118.13,276,118.13Z" style="fill:#ffbe9d"></path><path d="M273.7,125.68s-.12.08-.34.17a1.23,1.23,0,0,1-.93,0,3.08,3.08,0,0,1-1.38-2.8,4.24,4.24,0,0,1,.39-1.79,1.45,1.45,0,0,1,1-.94.64.64,0,0,1,.73.36c.09.2,0,.35.08.36s.16-.12.11-.42a.8.8,0,0,0-.28-.45.92.92,0,0,0-.68-.2,1.75,1.75,0,0,0-1.33,1.09,4.27,4.27,0,0,0-.48,2c0,1.45.73,2.82,1.76,3.14a1.33,1.33,0,0,0,1.15-.17C273.69,125.85,273.73,125.69,273.7,125.68Z" style="fill:#eb996e"></path><path d="M271.16,123.91a1.75,1.75,0,1,0,1.74-1.74A1.74,1.74,0,0,0,271.16,123.91Z" style="fill:#e0e0e0"></path><path d="M270.46,118a3,3,0,0,1,1.51-.68,2.11,2.11,0,0,1,1.57.45,2.44,2.44,0,0,1,.42.59,1.66,1.66,0,0,1,.15.79,2.83,2.83,0,0,1-.36,1.67c-.22.32.3.62.51.3a3.7,3.7,0,0,0,.19-3.11,2.28,2.28,0,0,0-1.05-1,3.08,3.08,0,0,0-1.64-.24,3.76,3.76,0,0,0-1.61.74c-.31.22,0,.74.31.52Z" style="fill:#e0e0e0"></path><path d="M274.06,123.12l.34-1.73a.64.64,0,0,0-.49-.73l-.32-.07a.63.63,0,0,0-.74.42l-.47,1.43Z" style="fill:#e0e0e0"></path><path d="M274.21,124c-.09,0-.08-.51-.63-.89a1.14,1.14,0,0,0-1-.11,1.09,1.09,0,0,0-.68,1,1.08,1.08,0,0,0,.68,1,1.11,1.11,0,0,0,1-.11c.55-.37.54-.9.63-.88s.08.11.06.34a1.37,1.37,0,0,1-.46.84,1.51,1.51,0,0,1-2.46-1.18,1.53,1.53,0,0,1,1-1.45,1.48,1.48,0,0,1,1.43.27,1.37,1.37,0,0,1,.46.84C274.29,123.87,274.24,124,274.21,124Z" style="fill:#fafafa"></path><path d="M273.89,121.62a.11.11,0,0,0-.13.11.12.12,0,0,0,.16.07.11.11,0,0,0,0-.17.06.06,0,0,0-.08,0" style="fill:#263238"></path><path d="M274.05,121.17a.1.1,0,1,0,0,.17c.06,0,.05-.13,0-.17a.09.09,0,0,0-.09,0" style="fill:#263238"></path><path d="M349.59,213.24s17.42-6.85,20.06-8.79c0,0,12.25-2,16.85-3.5,0,0,.84,1.13-1.83,3.1S374,208.7,374,208.7s2.11,3.38,1.55,5.36-4.23,5.91-5.07,4.79-.71-1.69-.71-1.69l-3.34,1.93a8.69,8.69,0,0,1-4.34,1.17h-3.59l-7.27,3.63Z" style="fill:#ffbe9d"></path><path d="M360.25,217.86s.39.17,1.1.34a6.44,6.44,0,0,0,3-.06,10,10,0,0,0,2-.75c.71-.33,1.32-.84,2.15-1.29a2.52,2.52,0,0,1,1.44-.26c.5.06.95.21,1.4.29a1.86,1.86,0,0,0,1.26-.11,2.06,2.06,0,0,0,.88-1,5.68,5.68,0,0,0,.4-1.93l.25.28c-3.59-.13-6.74-.44-9-.68-1.13-.13-2-.24-2.65-.33a3.8,3.8,0,0,1-1-.18,4,4,0,0,1,1,0l2.67.17c2.26.15,5.41.39,9,.51h.27l0,.27a5.82,5.82,0,0,1-.44,2.11,2.57,2.57,0,0,1-1.11,1.22,2.39,2.39,0,0,1-1.59.15c-1-.22-1.81-.51-2.54-.1s-1.44.93-2.17,1.24a9.08,9.08,0,0,1-2.1.73,6.17,6.17,0,0,1-3.19-.1,3.65,3.65,0,0,1-.8-.36Q360.24,217.89,360.25,217.86Z" style="fill:#eb996e"></path><path d="M372.32,212.9c-.15,0-.46-.69-.95-1.51s-1-1.45-.87-1.56.79.4,1.32,1.29S372.45,212.87,372.32,212.9Z" style="fill:#eb996e"></path><path d="M370.44,216c.06.14-.18.37-.37.68s-.31.62-.46.62-.27-.44,0-.9S370.4,215.83,370.44,216Z" style="fill:#eb996e"></path><path d="M311.1,151.23s7.95,2.2,11.76,8c2,3,12.24,51,12.24,51h19.28l2.24,14.87L336,230.26a21.64,21.64,0,0,1-13.67-1c-1.59-.67-2.86-1.45-3.16-2.28C318.26,224.41,311.1,151.23,311.1,151.23Z" style="fill:#BA68C8"></path><g style="opacity:0.30000000000000004"><path d="M250.33,246c2.1,1.3,4.72,1.35,7.19,1.27,4.61-.13,9.49-.65,13.16-3.45a32,32,0,0,1,2.93-2.28c2.59-1.51,6.35-1.46,7.8-4.08.83-1.51.59-3.52,1.7-4.83s3.48-1.35,5.4-1.22A49.71,49.71,0,0,0,307.38,229c-8.23-1.05-16.56-.47-24.83.11a3,3,0,0,0-.94.16,3.52,3.52,0,0,0-.86.58,22.39,22.39,0,0,1-7.49,4,8.39,8.39,0,0,0-3.13,1.36,9.6,9.6,0,0,0-1.18,1.36c-2.22,2.77-5.46,4.52-8.78,5.79s-6.78,2.13-10.05,3.52"></path></g><path d="M250.05,155.55c-.87.43-3.47.77-5.55,5.78-1.88,4.54-12.22,67-11.35,70.93s4.57,10.88,11.76,12.84c5.53,1.51,18.49-3.4,24.16-5.74,1.52-.63,2.9-2.65,2.3-4.19l-7.08-16-8.12.88,4.7-25.78Z" style="fill:#BA68C8"></path><path d="M262.92,177.64c-.09,0-.08-1.41-.36-3.66a24,24,0,0,0-2.58-8.36,17.44,17.44,0,0,0-5.89-6.37,31.13,31.13,0,0,0-3.27-1.64,3.26,3.26,0,0,1,1,.21,12.67,12.67,0,0,1,2.49,1.11,16.75,16.75,0,0,1,6.16,6.44,22.36,22.36,0,0,1,2.49,8.57,20.92,20.92,0,0,1,.08,2.71A3.75,3.75,0,0,1,262.92,177.64Z" style="fill:#263238"></path><path d="M264.29,219.19a13,13,0,0,1-2.26.39c-1.43.2-3.46.45-5.84.73h-.07l-.07,0a9.81,9.81,0,0,0-4.71-.9,15,15,0,0,0-8.51,3,10,10,0,0,0-1.91,2,4.52,4.52,0,0,1-.56.87,3.4,3.4,0,0,1,.39-1,8,8,0,0,1,1.85-2.17,14.52,14.52,0,0,1,8.72-3.19,10,10,0,0,1,5,1l-.14,0c2.39-.24,4.42-.42,5.86-.54A14,14,0,0,1,264.29,219.19Z" style="fill:#263238"></path><path d="M261.55,188.71a5.49,5.49,0,0,1-.09,1.24c-.12.9-.28,2-.46,3.37-.4,2.84-1,6.76-1.69,11.08s-1.33,8.23-1.86,11.06a16,16,0,0,1-1,3.28c-.31.8-.85,1-.85.92a1.81,1.81,0,0,0,.66-1,20.11,20.11,0,0,0,.79-3.27c.45-3,1.05-6.81,1.71-11.08s1.34-8.23,1.84-11.06l.62-3.34A5.67,5.67,0,0,1,261.55,188.71Z" style="fill:#263238"></path><path d="M271.39,235.82a.57.57,0,0,1,.14.28,1.9,1.9,0,0,1,0,.89,2.85,2.85,0,0,1-.64,1.28,4.58,4.58,0,0,1-1.53,1.07c-2.53,1-6,2.21-9.91,3.59s-7.38,2.77-10.16,2.83a13.34,13.34,0,0,1-3.21-.24,3.91,3.91,0,0,1-1.13-.33,22.2,22.2,0,0,0,4.32.2c2.67-.14,6.12-1.64,10-3l9.93-3.42a4.38,4.38,0,0,0,1.47-.94,2.8,2.8,0,0,0,.65-1.12A2.65,2.65,0,0,0,271.39,235.82Z" style="fill:#263238"></path><path d="M318.87,202a8.16,8.16,0,0,1,.18-1.42c.08-.46.17-1,.24-1.67s.19-1.39.24-2.21a49.63,49.63,0,0,0,.15-5.78,54.59,54.59,0,0,0-.77-7,52.5,52.5,0,0,0-1.82-6.84,46.82,46.82,0,0,0-2.22-5.34c-.34-.75-.71-1.39-1-2s-.58-1.08-.82-1.47a8.38,8.38,0,0,1-.68-1.27,7.39,7.39,0,0,1,.85,1.16c.27.38.58.86.91,1.43s.73,1.21,1.09,2a42,42,0,0,1,2.35,5.34,50.27,50.27,0,0,1,1.87,6.9,49.23,49.23,0,0,1,.74,7.12,42.74,42.74,0,0,1-.27,5.83c-.06.82-.21,1.56-.31,2.21s-.22,1.21-.33,1.66A6.75,6.75,0,0,1,318.87,202Z" style="fill:#263238"></path><path d="M325.11,266.21a2,2,0,0,1-.13-.5c-.07-.39-.15-.86-.26-1.44-.22-1.32-.51-3.11-.86-5.29-.71-4.47-1.64-10.66-2.65-17.49s-1.89-13-2.47-17.52l-.68-5.32c-.06-.58-.11-1.06-.16-1.45a1.8,1.8,0,0,1,0-.51,2,2,0,0,1,.13.49c.07.39.15.87.25,1.44.21,1.33.5,3.12.84,5.3.68,4.55,1.61,10.7,2.63,17.5s1.88,13,2.49,17.51c.29,2.19.53,4,.7,5.32.07.58.12,1.06.17,1.45A1.81,1.81,0,0,1,325.11,266.21Z" style="fill:#263238"></path><path d="M273.53,146.18l.1-1s3,9.53,13.46,8.86c0,0,9.47-.58,11.8-6.35l6,1-3.5,12.67-11.87,6.3-13.38-1.25-5.66-8.09.24-9Z" style="fill:#BA68C8"></path><path d="M288.06,154.5a2,2,0,0,1,0,.37c0,.28,0,.64,0,1.11,0,1,.14,2.4.26,4.24.26,3.69.69,9,1.26,15.61,1.13,13.16,2.8,31.35,4.68,51.43.93,10,1.81,19.61,2.62,28.31s1.83,16.51,2,23.14c.13,3.31,0,6.31-.17,8.93s-.31,4.87-.43,6.72-.21,3.25-.27,4.25c0,.46-.05.83-.07,1.1a1.42,1.42,0,0,1,0,.38s0-.13,0-.38,0-.64,0-1.11c0-1,.08-2.4.18-4.25s.21-4.11.34-6.72.24-5.61.09-8.91c-.25-6.59-1.45-14.39-2.14-23.1s-1.72-18.27-2.66-28.31c-1.87-20.08-3.49-38.28-4.53-51.45-.52-6.59-.9-11.93-1.09-15.62-.09-1.85-.17-3.28-.16-4.26v-1.11A1.46,1.46,0,0,1,288.06,154.5Z" style="fill:#263238"></path><path d="M301.76,148a5.58,5.58,0,0,1-.64,2.44,12.55,12.55,0,0,1-3.84,4.72A20.12,20.12,0,0,1,291.9,158a9.71,9.71,0,0,1-2.42.66,15.08,15.08,0,0,1,2.29-1,23.65,23.65,0,0,0,5.19-2.91,13.74,13.74,0,0,0,3.83-4.47C301.49,148.93,301.67,148,301.76,148Z" style="fill:#263238"></path><path d="M287,158.66a10.8,10.8,0,0,1-2.86-.13,21.33,21.33,0,0,1-6.65-1.85,13.47,13.47,0,0,1-5.29-4.44,8.85,8.85,0,0,1-1-1.86,2,2,0,0,1-.21-.74c.09,0,.45,1,1.5,2.39a14.43,14.43,0,0,0,5.22,4.18,24.43,24.43,0,0,0,6.48,2A26.73,26.73,0,0,1,287,158.66Z" style="fill:#263238"></path><path d="M290,154.84c-.06,0,.27-.37.82-.1a.84.84,0,0,1,.38.93.92.92,0,0,1-.36.54,1.23,1.23,0,0,1-.62.18,1.24,1.24,0,0,1-.62-.11.86.86,0,0,1-.44-.48.81.81,0,0,1,.29-1c.54-.31.88,0,.82.07s-.33,0-.59.22a.43.43,0,0,0-.07.5c.08.19.26.26.59.25a.49.49,0,0,0,.41-.83C290.31,154.8,290,154.9,290,154.84Z" style="fill:#263238"></path><path d="M291.68,168.5c-.06,0,.26-.37.82-.1a.84.84,0,0,1,.37.93.9.9,0,0,1-.35.54,1.23,1.23,0,0,1-.63.18,1.28,1.28,0,0,1-.62-.11.84.84,0,0,1-.43-.48.81.81,0,0,1,.29-1c.54-.31.88,0,.81.07s-.33,0-.59.22a.47.47,0,0,0-.07.5c.09.19.27.26.59.25a.49.49,0,0,0,.42-.83C292,168.46,291.71,168.57,291.68,168.5Z" style="fill:#263238"></path><path d="M297.8,233.78c-.06,0,.27-.38.82-.1a.86.86,0,0,1,.38.93,1,1,0,0,1-.36.54,1.23,1.23,0,0,1-.62.18,1.3,1.3,0,0,1-.63-.11.87.87,0,0,1-.43-.48.81.81,0,0,1,.29-1c.54-.31.88,0,.82.07s-.33,0-.6.22a.44.44,0,0,0-.06.5c.08.19.26.26.59.25a.49.49,0,0,0,.41-.83C298.13,233.74,297.83,233.84,297.8,233.78Z" style="fill:#263238"></path><path d="M299,249.61c-.06,0,.26-.38.82-.1a.84.84,0,0,1,.37.93.9.9,0,0,1-.35.54,1.23,1.23,0,0,1-.63.18,1.28,1.28,0,0,1-.62-.11.84.84,0,0,1-.43-.48.81.81,0,0,1,.29-1c.54-.31.88,0,.82.07s-.34,0-.6.22a.46.46,0,0,0-.07.5c.09.19.27.26.59.25a.49.49,0,0,0,.42-.83C299.36,249.57,299.06,249.67,299,249.61Z" style="fill:#263238"></path><path d="M300.26,265.44c-.06,0,.26-.38.81-.1a.83.83,0,0,1,.38.93.92.92,0,0,1-.36.54,1.2,1.2,0,0,1-.62.18,1.26,1.26,0,0,1-.62-.11.84.84,0,0,1-.43-.48.81.81,0,0,1,.28-1c.55-.31.89,0,.82.07s-.33,0-.59.22a.43.43,0,0,0-.07.5c.09.19.27.26.59.25a.49.49,0,0,0,.42-.83C300.59,265.4,300.29,265.5,300.26,265.44Z" style="fill:#263238"></path><path d="M301.49,281.27c-.06,0,.26-.38.81-.1a.83.83,0,0,1,.38.93.92.92,0,0,1-.36.54,1.2,1.2,0,0,1-.62.18,1.26,1.26,0,0,1-.62-.11.89.89,0,0,1-.44-.48.82.82,0,0,1,.29-1c.55-.31.89,0,.82.07s-.33,0-.59.22a.43.43,0,0,0-.07.5c.08.19.27.26.59.25a.49.49,0,0,0,.41-.83C301.82,281.23,301.51,281.33,301.49,281.27Z" style="fill:#263238"></path><path d="M327,220.07a5.76,5.76,0,0,1,.21-2,12.11,12.11,0,0,1,2-4.54,8.58,8.58,0,0,1,3.89-3.06,3.7,3.7,0,0,1,2-.34c0,.08-.77.17-1.88.68a9.34,9.34,0,0,0-3.61,3,14.41,14.41,0,0,0-2,4.33A12.54,12.54,0,0,1,327,220.07Z" style="fill:#263238"></path><path d="M299,141.7c-.2,4.26-.3,8.88,2.16,12.37.66.94,1.49,1.75,2.09,2.73,1.89,3.09,1.16,7.08,0,10.5.9.58,2.11-.13,2.72-1a10.06,10.06,0,0,1,1.83-2.63,15.34,15.34,0,0,1-.92,4.49c2.26.26,4.33-1.39,5.57-3.29a12.67,12.67,0,0,0,1.92-8.77c-.24-1.58-.78-3.11-1.16-4.67-1-4.3-.82-8.79-.59-13.2l-6.24,1" style="fill:#263238"></path><g style="opacity:0.30000000000000004"><path d="M261.68,188.2c-.24,1.06-.37,2.22-.6,3.29-1.2,5.53-1.62,11.06-2.75,16.76A19.22,19.22,0,0,0,261.68,188.2Z"></path></g><g style="opacity:0.30000000000000004"><path d="M334.61,209.9a10.35,10.35,0,0,0-7.41,1.25,8,8,0,0,0-3.8,6.33c0,.58.2,1.35.79,1.36a1.22,1.22,0,0,0,.8-.46,26.26,26.26,0,0,0,3-3.72c.91-1.35,1.79-2.87,3.28-3.53,1.16-.51,2.61-.45,3.51-1.34"></path></g><g style="opacity:0.30000000000000004"><path d="M254.34,219.34a9.54,9.54,0,0,0-8.31-.9,13.25,13.25,0,0,0-3.13,1.61,11.42,11.42,0,0,0-2.12,1.66.85.85,0,0,0-.27.52.59.59,0,0,0,.66.53,1.82,1.82,0,0,0,.87-.37,20.49,20.49,0,0,1,12.3-3"></path></g><path d="M271.37,179.77c0,.74,5,44.1,5,44.1l38,1.26V179.77Z" style="fill:#ebebeb"></path><path d="M280.37,174.92c0,.92-5.28,54.61-5.28,54.61l41.26-1,6.94-53.62Z" style="fill:#f5f5f5"></path><path d="M280.37,174.92l.75,0,2.27,0,8.66-.06,31.24-.11h.24l0,.24c-1.95,15.21-4.31,33.52-6.84,53.21,0,.14,0,.29-.05.43l0,.22h-.23l-41.25,1h-.27l0-.26c1.61-16.21,3-29.87,3.93-39.51.48-4.77.87-8.55,1.14-11.15.13-1.27.24-2.25.31-2.94,0-.32.07-.56.09-.75s0-.25,0-.24,0,.09,0,.27,0,.45-.06.77c-.06.7-.14,1.7-.25,3-.24,2.61-.59,6.41-1,11.21-.9,9.61-2.18,23.24-3.69,39.39l-.24-.25,41.25-1-.25.23.06-.43c2.56-19.69,4.94-38,6.92-53.19l.22.24-31.1-.11-8.72-.06-2.3,0Z" style="fill:#263238"></path><path d="M263.19,223.78s3.28-7.25,4-7.66,12.44-1.75,14.78-1.78c2.53,0,6.44.07,7.09,1.31.47.91,0,2.25-1.88,2.52,0,0,2.62-.13,2.33,1.51s-6.17,4.65-6.17,4.65,1.1,1.23-1.09,3.56l-1,1.23s.41,2.19-.82,3.15-9.06,3.69-9.06,3.69l-3-1-1.92,1S260.23,229.89,263.19,223.78Z" style="fill:#ffbe9d"></path><path d="M288.06,217.85a14.45,14.45,0,0,1-2.62.93c-1.65.5-3.94,1.11-6.5,1.68s-4.9,1-6.6,1.22a13.52,13.52,0,0,1-2.77.26,15.76,15.76,0,0,1,2.71-.63c1.68-.33,4-.79,6.55-1.36s4.85-1.12,6.51-1.53A16.47,16.47,0,0,1,288.06,217.85Z" style="fill:#eb996e"></path><path d="M283.07,224.55a18.94,18.94,0,0,1-5.49,1.86,18.69,18.69,0,0,1-5.78.58c0-.15,2.56-.41,5.67-1.09S283,224.4,283.07,224.55Z" style="fill:#eb996e"></path><path d="M281.13,229.06a11.36,11.36,0,0,1-7.65,2.48c0-.16,1.79-.35,3.89-1S281.05,228.93,281.13,229.06Z" style="fill:#eb996e"></path><path d="M269.39,231.88c0,.05-.61.08-1.38-.47a3.26,3.26,0,0,1-1-1.24,3.45,3.45,0,0,1-.28-1.94,1.42,1.42,0,0,0-.14-.8,3.84,3.84,0,0,0-.55-.64,2.71,2.71,0,0,1-.68-1.48c-.11-.94.25-1.46.29-1.42a7.13,7.13,0,0,0,.07,1.35,2.61,2.61,0,0,0,.67,1.22,4.17,4.17,0,0,1,.64.71,1.82,1.82,0,0,1,.22,1.08,3.17,3.17,0,0,0,1,2.88C268.86,231.68,269.41,231.79,269.39,231.88Z" style="fill:#eb996e"></path><path d="M271.37,235.17c0,.14-.87.12-1.49-.65s-.47-1.63-.33-1.6.23.67.73,1.27S271.39,235,271.37,235.17Z" style="fill:#eb996e"></path></g><g id="freepik--Printer--inject-17"><polygon points="380.66 169.33 380.69 178.44 384.08 179.92 379.63 179.93 378.8 185.65 459.36 194.34 467.38 181.71 380.66 169.33" style="fill:#f5f5f5"></polygon><polygon points="368.21 188.65 369.26 183.34 379.23 184.51 425.86 189.98 424.13 195.76 368.21 188.65" style="fill:#263238"></polygon><path d="M457.68,199.45l-45.37-5h0a15.23,15.23,0,0,1,16.36-10.57l35.76,4.29Z" style="fill:#455a64"></path><path d="M518.71,188.34l.08,30.66L361,219.42h0a14.52,14.52,0,0,1,14.49-14.57l71-.19,18.2-24.95,45.61.23A8.41,8.41,0,0,1,518.71,188.34Z" style="fill:#BA68C8"></path><path d="M518.17,213.06c0,.14-34.88.26-77.9.26s-77.91-.12-77.91-.26,34.87-.26,77.91-.26S518.17,212.92,518.17,213.06Z" style="fill:#263238"></path><polygon points="669.9 236.83 608.13 271.47 608.13 263.57 667.22 232.63 669.9 236.83" style="fill:#f5f5f5"></polygon><polygon points="608.13 271.47 656.71 244.19 660.77 249.98 630.76 267.79 630.57 275.54 608.13 287.74 608.13 271.47" style="fill:#263238"></polygon><polygon points="608.13 346.63 656.71 319.34 660.77 325.13 630.76 342.95 630.57 350.69 608.13 362.89 608.13 346.63" style="fill:#263238"></polygon><path d="M479.5,244.19H608.13a0,0,0,0,1,0,0v80.38a0,0,0,0,1,0,0H488.76a9.26,9.26,0,0,1-9.26-9.26V244.19A0,0,0,0,1,479.5,244.19Z" transform="translate(1087.63 568.76) rotate(180)" style="fill:#BA68C8"></path><rect x="479.5" y="327.55" width="128.64" height="94.11" transform="translate(1087.63 749.22) rotate(180)" style="fill:#BA68C8"></rect><polygon points="608.84 403.87 663.45 403.87 663.45 408.86 608.1 414.79 608.84 403.87" style="fill:#263238"></polygon><path d="M616.71,423.49h0a4.72,4.72,0,0,0,4.72-4.72v-4.72a4.72,4.72,0,0,0-4.72-4.72h0a4.72,4.72,0,0,0-4.72,4.72v4.72A4.72,4.72,0,0,0,616.71,423.49Z" style="fill:#263238"></path><polygon points="657.53 406.83 657.53 390.54 650.12 390.54 650.12 407.94 657.53 406.83" style="fill:#263238"></polygon><rect x="479.5" y="424.97" width="128.6" height="29.97" transform="translate(1087.59 879.91) rotate(180)" style="fill:#BA68C8"></rect><path d="M479.5,244.19H608.13a0,0,0,0,1,0,0v80.38a0,0,0,0,1,0,0H488.76a9.26,9.26,0,0,1-9.26-9.26V244.19A0,0,0,0,1,479.5,244.19Z" transform="translate(1087.63 568.76) rotate(180)" style="opacity:0.6000000000000001"></path><rect x="479.5" y="327.55" width="128.64" height="94.11" transform="translate(1087.63 749.22) rotate(180)" style="opacity:0.6000000000000001"></rect><rect x="479.5" y="424.97" width="128.6" height="29.97" transform="translate(1087.59 879.91) rotate(180)" style="opacity:0.6000000000000001"></rect><rect x="479.5" y="454.94" width="128.6" height="12.14" transform="translate(1087.59 922.01) rotate(180)" style="fill:#BA68C8"></rect><rect x="370.45" y="232.58" width="138" height="223.05" transform="translate(878.9 688.21) rotate(180)" style="fill:#BA68C8"></rect><rect x="370.45" y="232.58" width="138" height="223.05" transform="translate(878.9 688.21) rotate(180)" style="opacity:0.30000000000000004"></rect><rect x="363.19" y="229.48" width="53.43" height="62.58" transform="translate(779.81 521.54) rotate(180)" style="fill:#BA68C8"></rect><path d="M518.79,218.85v12a5,5,0,0,1-5,5H363.19v-17Z" style="fill:#BA68C8"></path><path d="M448.67,255.87v-37H363.19v30.41a6.61,6.61,0,0,0,6.61,6.61h78.87" style="fill:#263238"></path><rect x="397.35" y="223.85" width="45.36" height="23.61" transform="translate(840.05 471.31) rotate(180)" style="fill:#455a64"></rect><rect x="387.36" y="223.85" width="2.55" height="2.55" transform="translate(777.26 450.25) rotate(180)" style="fill:#455a64"></rect><rect x="382.43" y="223.85" width="2.55" height="2.55" transform="translate(767.42 450.25) rotate(180)" style="fill:#455a64"></rect><rect x="377.51" y="223.85" width="2.55" height="2.55" transform="translate(757.57 450.25) rotate(180)" style="fill:#455a64"></rect><rect x="367.28" y="223.85" width="6.88" height="2.55" transform="translate(741.43 450.25) rotate(180)" style="fill:#f5f5f5"></rect><rect x="367.28" y="228.21" width="6.88" height="2.55" transform="translate(741.43 458.96) rotate(180)" style="fill:#f5f5f5"></rect><rect x="367.28" y="232.58" width="6.88" height="2.55" transform="translate(741.43 467.71) rotate(180)" style="fill:#f5f5f5"></rect><rect x="367.28" y="237.27" width="6.88" height="2.55" transform="translate(741.43 477.08) rotate(180)" style="fill:#f5f5f5"></rect><rect x="377.51" y="228.29" width="2.55" height="2.55" transform="translate(757.57 459.12) rotate(180)" style="fill:#455a64"></rect><rect x="387.36" y="228.42" width="2.55" height="2.55" transform="translate(777.26 459.39) rotate(180)" style="fill:#455a64"></rect><rect x="387.36" y="232.67" width="2.55" height="2.55" transform="translate(777.26 467.88) rotate(180)" style="fill:#455a64"></rect><rect x="382.27" y="228.42" width="2.55" height="2.55" transform="translate(767.09 459.39) rotate(180)" style="fill:#455a64"></rect><rect x="382.27" y="232.67" width="2.55" height="2.55" transform="translate(767.09 467.88) rotate(180)" style="fill:#455a64"></rect><rect x="377.3" y="232.67" width="2.55" height="2.55" transform="translate(757.14 467.88) rotate(180)" style="fill:#455a64"></rect><path d="M374.69,245.22a4.43,4.43,0,1,0,4.43-4.43A4.43,4.43,0,0,0,374.69,245.22Z" style="fill:#BA68C8"></path><path d="M385.21,245.22a2.62,2.62,0,1,0,2.62-2.62A2.62,2.62,0,0,0,385.21,245.22Z" style="fill:#455a64"></path><path d="M367.83,245.26a2.62,2.62,0,1,0,2.62-2.62A2.62,2.62,0,0,0,367.83,245.26Z" style="fill:#455a64"></path><path d="M363.19,292.06H518.62a0,0,0,0,1,0,0v70.13a0,0,0,0,1,0,0H371.76a8.57,8.57,0,0,1-8.57-8.57V292.06A0,0,0,0,1,363.19,292.06Z" transform="translate(881.81 654.26) rotate(180)" style="fill:#BA68C8"></path><path d="M363.19,363.67H518.62a0,0,0,0,1,0,0v20.72a4.73,4.73,0,0,1-4.73,4.73H369.95a6.76,6.76,0,0,1-6.76-6.76V363.67A0,0,0,0,1,363.19,363.67Z" transform="translate(881.81 752.78) rotate(180)" style="fill:#BA68C8"></path><path d="M421.52,363.67h39.41a5.17,5.17,0,0,1,5.17,5.17v6.62a0,0,0,0,1,0,0H416.36a0,0,0,0,1,0,0v-6.62A5.17,5.17,0,0,1,421.52,363.67Z" transform="translate(882.46 739.12) rotate(180)" style="opacity:0.30000000000000004"></path><path d="M363.19,390.12H518.62a0,0,0,0,1,0,0v44.31a7.13,7.13,0,0,1-7.13,7.13H370.31a7.13,7.13,0,0,1-7.13-7.13V390.12A0,0,0,0,1,363.19,390.12Z" transform="translate(881.81 831.69) rotate(180)" style="fill:#BA68C8"></path><path d="M421.52,390.12h39.41a5.17,5.17,0,0,1,5.17,5.17v6.62a0,0,0,0,1,0,0H416.36a0,0,0,0,1,0,0v-6.62A5.17,5.17,0,0,1,421.52,390.12Z" transform="translate(882.46 792.04) rotate(180)" style="opacity:0.30000000000000004"></path><rect x="363.19" y="444.18" width="155.43" height="22.89" transform="translate(881.81 911.26) rotate(180)" style="fill:#BA68C8"></rect><rect x="416.62" y="275.03" width="61" height="3.83" transform="translate(894.24 553.89) rotate(180)" style="fill:#263238"></rect><rect x="416.62" y="260.77" width="82.1" height="14.26" transform="translate(915.34 535.81) rotate(180)" style="fill:#f5f5f5"></rect><path d="M416.86,226.94c0,.15,5.07.26,11.32.26s11.32-.11,11.32-.26-5.07-.27-11.32-.27S416.86,226.79,416.86,226.94Z" style="fill:#fafafa"></path><path d="M429.9,230.59a44.44,44.44,0,0,0,9.6,0,42.8,42.8,0,0,0-9.6,0Z" style="fill:#fafafa"></path><path d="M429.9,234.45a42.8,42.8,0,0,0,9.6,0,42.8,42.8,0,0,0-9.6,0Z" style="fill:#fafafa"></path><path d="M429.62,240.79a42.71,42.71,0,0,0,9.59,0,42.71,42.71,0,0,0-9.59,0Z" style="fill:#fafafa"></path><path d="M403.35,240.79a42.8,42.8,0,0,0,9.6,0,42.8,42.8,0,0,0-9.6,0Z" style="fill:#fafafa"></path><rect x="363.19" y="444.18" width="155.43" height="22.89" transform="translate(881.81 911.26) rotate(180)" style="fill:#fff;opacity:0.5"></rect><path d="M363.28,355.38c0,.15,34.73.27,77.57.27s77.57-.12,77.57-.27-34.72-.27-77.57-.27S363.28,355.23,363.28,355.38Z" style="fill:#263238"></path><path d="M363.28,349.68c0,.15,34.73.27,77.57.27s77.57-.12,77.57-.27-34.72-.27-77.57-.27S363.28,349.53,363.28,349.68Z" style="fill:#263238"></path><path d="M363.28,344c0,.15,34.73.27,77.57.27s77.57-.12,77.57-.27-34.72-.27-77.57-.27S363.28,343.83,363.28,344Z" style="fill:#263238"></path><path d="M363.28,338.28c0,.15,34.73.26,77.57.26s77.57-.11,77.57-.26S483.7,338,440.85,338,363.28,338.13,363.28,338.28Z" style="fill:#263238"></path><path d="M363,389.09c0,.15,34.89.26,77.92.26s77.93-.11,77.93-.26-34.88-.27-77.93-.27S363,388.94,363,389.09Z" style="fill:#263238"></path><path d="M363,441.56c0,.15,34.89.27,77.92.27s77.93-.12,77.93-.27-34.88-.27-77.93-.27S363,441.41,363,441.56Z" style="fill:#263238"></path><path d="M416.36,363.67a3.47,3.47,0,0,0-.07.69c0,.5-.07,1.16-.13,2a20.25,20.25,0,0,0,0,3.15,7.16,7.16,0,0,0,1.52,3.91,5.2,5.2,0,0,0,2,1.47,14.28,14.28,0,0,0,2.57.69,36.27,36.27,0,0,0,5.79.54c4.09,0,8.55-.07,13.26-.12l13.25-.2c2,0,4,0,5.79-.15A7.89,7.89,0,0,0,463,375a5,5,0,0,0,2-1.52,7.2,7.2,0,0,0,1.42-3.94,29.21,29.21,0,0,0,0-3.15c0-.87-.08-1.53-.12-2a3.35,3.35,0,0,0-.1-.68,3.32,3.32,0,0,0,0,.69c0,.51,0,1.17,0,2s0,1.92-.08,3.12a6.94,6.94,0,0,1-1.42,3.74,4.59,4.59,0,0,1-1.84,1.38,7.82,7.82,0,0,1-2.48.52c-1.78.1-3.74.06-5.77.1l-13.25.16c-4.7,0-9.18.17-13.24.16a36.5,36.5,0,0,1-5.72-.49,13.14,13.14,0,0,1-2.49-.63,4.79,4.79,0,0,1-1.88-1.33,6.94,6.94,0,0,1-1.52-3.7,22.36,22.36,0,0,1-.06-3.11c0-.86,0-1.53,0-2A4.67,4.67,0,0,0,416.36,363.67Z" style="fill:#263238"></path><path d="M416.36,389.66a3.47,3.47,0,0,0-.07.69c0,.51-.07,1.16-.13,2a20.25,20.25,0,0,0,0,3.15,7.16,7.16,0,0,0,1.52,3.91,5.1,5.1,0,0,0,2,1.47,14.28,14.28,0,0,0,2.57.69,36.27,36.27,0,0,0,5.79.54c4.09,0,8.55-.07,13.26-.12l13.25-.2c2,0,4,0,5.79-.14A8.41,8.41,0,0,0,463,401a5.1,5.1,0,0,0,2-1.52,7.26,7.26,0,0,0,1.42-3.95,29.21,29.21,0,0,0,0-3.15c0-.87-.08-1.53-.12-2a3.35,3.35,0,0,0-.1-.68,3.32,3.32,0,0,0,0,.69c0,.51,0,1.17,0,2s0,1.92-.08,3.12a6.94,6.94,0,0,1-1.42,3.74,4.59,4.59,0,0,1-1.84,1.38,7.82,7.82,0,0,1-2.48.52c-1.78.1-3.74.06-5.77.1l-13.25.16c-4.7,0-9.18.17-13.24.16a36.5,36.5,0,0,1-5.72-.49,13.14,13.14,0,0,1-2.49-.63,4.79,4.79,0,0,1-1.88-1.33,6.94,6.94,0,0,1-1.52-3.7,22.36,22.36,0,0,1-.06-3.11c0-.86,0-1.53,0-2A4.67,4.67,0,0,0,416.36,389.66Z" style="fill:#263238"></path></g><g id="freepik--Floor--inject-17"><path d="M694.79,467.35c0,.14-145.29.26-324.48.26s-324.51-.12-324.51-.26,145.26-.26,324.51-.26S694.79,467.21,694.79,467.35Z" style="fill:#263238"></path></g></svg>